<svg width="1920" height="955" viewBox="0 0 1920 955" fill="none" xmlns="http://www.w3.org/2000/svg">
<path d="M1429.97 505.996H1428.82C1428.76 505.676 1428.64 505.395 1428.47 505.153C1428.3 504.91 1428.1 504.707 1427.86 504.543C1427.62 504.375 1427.36 504.25 1427.07 504.166C1426.78 504.082 1426.48 504.041 1426.17 504.041C1425.6 504.041 1425.08 504.181 1424.61 504.462C1424.15 504.743 1423.79 505.157 1423.51 505.704C1423.24 506.251 1423.11 506.922 1423.11 507.717C1423.11 508.512 1423.24 509.184 1423.51 509.731C1423.79 510.278 1424.15 510.692 1424.61 510.973C1425.08 511.254 1425.6 511.394 1426.17 511.394C1426.48 511.394 1426.78 511.352 1427.07 511.268C1427.36 511.185 1427.62 511.061 1427.86 510.896C1428.1 510.729 1428.3 510.524 1428.47 510.282C1428.64 510.037 1428.76 509.756 1428.82 509.439H1429.97C1429.88 509.908 1429.72 510.328 1429.5 510.699C1429.27 511.07 1428.99 511.385 1428.65 511.645C1428.31 511.902 1427.93 512.098 1427.51 512.232C1427.09 512.367 1426.64 512.434 1426.17 512.434C1425.36 512.434 1424.65 512.243 1424.02 511.86C1423.39 511.478 1422.9 510.934 1422.54 510.228C1422.18 509.523 1422 508.686 1422 507.717C1422 506.749 1422.18 505.912 1422.54 505.206C1422.9 504.501 1423.39 503.957 1424.02 503.574C1424.65 503.192 1425.36 503 1426.17 503C1426.64 503 1427.09 503.068 1427.51 503.202C1427.93 503.337 1428.31 503.534 1428.65 503.794C1428.99 504.051 1429.27 504.365 1429.5 504.736C1429.72 505.103 1429.88 505.523 1429.97 505.996Z" fill="#999999"/>
<path d="M1432.2 512.309H1431L1434.47 503.126H1435.65L1439.12 512.309H1437.92L1435.1 504.579H1435.02L1432.2 512.309ZM1432.64 508.722H1437.47V509.708H1432.64V508.722Z" fill="#999999"/>
<path d="M1440.59 512.309V503.126H1443.78C1444.52 503.126 1445.12 503.256 1445.59 503.516C1446.07 503.773 1446.42 504.121 1446.64 504.561C1446.87 505 1446.99 505.49 1446.99 506.031C1446.99 506.572 1446.87 507.064 1446.64 507.507C1446.42 507.949 1446.07 508.302 1445.6 508.565C1445.13 508.825 1444.53 508.955 1443.79 508.955H1441.51V507.968H1443.76C1444.27 507.968 1444.67 507.883 1444.98 507.713C1445.29 507.542 1445.51 507.312 1445.65 507.022C1445.79 506.729 1445.86 506.399 1445.86 506.031C1445.86 505.664 1445.79 505.335 1445.65 505.045C1445.51 504.755 1445.29 504.528 1444.98 504.363C1444.66 504.196 1444.25 504.112 1443.74 504.112H1441.73V512.309H1440.59Z" fill="#999999"/>
<path d="M1449.03 512.38C1448.8 512.38 1448.61 512.301 1448.44 512.143C1448.28 511.984 1448.2 511.795 1448.2 511.573C1448.2 511.352 1448.28 511.162 1448.44 511.004C1448.61 510.845 1448.8 510.766 1449.03 510.766C1449.26 510.766 1449.45 510.845 1449.61 511.004C1449.78 511.162 1449.86 511.352 1449.86 511.573C1449.86 511.72 1449.82 511.854 1449.74 511.977C1449.67 512.099 1449.57 512.198 1449.44 512.273C1449.32 512.345 1449.18 512.38 1449.03 512.38Z" fill="#999999"/>
<path d="M1451.57 510.426V509.511L1455.72 503.126H1456.4V504.543H1455.94L1452.81 509.367V509.439H1458.39V510.426H1451.57ZM1456.01 512.309V503.126H1457.1V512.309H1456.01Z" fill="#999999"/>
<path d="M1463.31 503.126V512.309H1462.17V504.292H1462.12L1459.81 505.78V504.65L1462.17 503.126H1463.31Z" fill="#999999"/>
<path d="M1469.03 503C1469.42 503.003 1469.81 503.075 1470.2 503.216C1470.58 503.356 1470.94 503.589 1471.26 503.915C1471.58 504.238 1471.83 504.679 1472.03 505.238C1472.22 505.797 1472.32 506.498 1472.32 507.341C1472.32 508.157 1472.24 508.882 1472.08 509.515C1471.92 510.146 1471.69 510.678 1471.4 511.112C1471.1 511.545 1470.74 511.874 1470.32 512.098C1469.9 512.322 1469.42 512.434 1468.89 512.434C1468.36 512.434 1467.89 512.333 1467.47 512.129C1467.06 511.923 1466.72 511.638 1466.46 511.273C1466.2 510.905 1466.03 510.479 1465.96 509.995H1467.08C1467.18 510.417 1467.38 510.765 1467.68 511.04C1467.99 511.312 1468.39 511.448 1468.89 511.448C1469.62 511.448 1470.19 511.138 1470.61 510.52C1471.04 509.901 1471.25 509.027 1471.25 507.897H1471.17C1471 508.148 1470.8 508.364 1470.56 508.547C1470.32 508.729 1470.06 508.87 1469.77 508.968C1469.48 509.067 1469.18 509.116 1468.85 509.116C1468.31 509.116 1467.81 508.986 1467.36 508.726C1466.91 508.463 1466.55 508.103 1466.28 507.646C1466.02 507.185 1465.88 506.659 1465.88 506.067C1465.88 505.505 1466.01 504.991 1466.27 504.525C1466.53 504.056 1466.9 503.682 1467.37 503.404C1467.84 503.126 1468.4 502.991 1469.03 503ZM1469.03 503.987C1468.65 503.987 1468.3 504.081 1467.99 504.269C1467.68 504.455 1467.44 504.706 1467.26 505.023C1467.08 505.336 1466.99 505.685 1466.99 506.067C1466.99 506.45 1467.07 506.798 1467.25 507.112C1467.42 507.423 1467.66 507.671 1467.96 507.856C1468.26 508.039 1468.61 508.13 1469 508.13C1469.29 508.13 1469.56 508.075 1469.81 507.964C1470.07 507.85 1470.29 507.696 1470.47 507.502C1470.66 507.305 1470.81 507.082 1470.92 506.834C1471.03 506.583 1471.08 506.321 1471.08 506.049C1471.08 505.691 1470.99 505.354 1470.81 505.041C1470.64 504.727 1470.4 504.473 1470.09 504.278C1469.78 504.084 1469.43 503.987 1469.03 503.987Z" fill="#999999"/>
<path d="M1425.52 518.909V528.091H1424.38V520.075H1424.32L1422.02 521.563V520.433L1424.38 518.909H1425.52Z" fill="#999999"/>
<path d="M1431.26 528.217C1430.63 528.217 1430.07 528.108 1429.58 527.89C1429.1 527.669 1428.72 527.365 1428.45 526.98C1428.18 526.591 1428.05 526.149 1428.05 525.652C1428.05 525.264 1428.13 524.905 1428.29 524.576C1428.45 524.244 1428.67 523.968 1428.94 523.747C1429.22 523.523 1429.53 523.381 1429.88 523.321V523.267C1429.43 523.153 1429.07 522.907 1428.8 522.527C1428.53 522.145 1428.4 521.71 1428.4 521.222C1428.4 520.756 1428.52 520.339 1428.77 519.971C1429.01 519.604 1429.35 519.314 1429.78 519.102C1430.22 518.889 1430.71 518.783 1431.26 518.783C1431.81 518.783 1432.3 518.889 1432.73 519.102C1433.16 519.314 1433.5 519.604 1433.74 519.971C1433.99 520.339 1434.12 520.756 1434.12 521.222C1434.12 521.71 1433.98 522.145 1433.71 522.527C1433.44 522.907 1433.09 523.153 1432.64 523.267V523.321C1432.99 523.381 1433.29 523.523 1433.57 523.747C1433.84 523.968 1434.06 524.244 1434.22 524.576C1434.38 524.905 1434.47 525.264 1434.47 525.652C1434.47 526.149 1434.33 526.591 1434.06 526.98C1433.78 527.365 1433.41 527.669 1432.93 527.89C1432.45 528.108 1431.89 528.217 1431.26 528.217ZM1431.26 527.231C1431.69 527.231 1432.06 527.163 1432.37 527.029C1432.68 526.894 1432.92 526.705 1433.09 526.459C1433.26 526.214 1433.34 525.927 1433.35 525.599C1433.34 525.252 1433.25 524.945 1433.07 524.679C1432.89 524.413 1432.64 524.204 1432.33 524.052C1432.02 523.899 1431.66 523.823 1431.26 523.823C1430.86 523.823 1430.5 523.899 1430.18 524.052C1429.87 524.204 1429.62 524.413 1429.44 524.679C1429.26 524.945 1429.17 525.252 1429.18 525.599C1429.17 525.927 1429.26 526.214 1429.42 526.459C1429.59 526.705 1429.83 526.894 1430.15 527.029C1430.46 527.163 1430.83 527.231 1431.26 527.231ZM1431.26 522.872C1431.6 522.872 1431.9 522.807 1432.16 522.675C1432.42 522.544 1432.63 522.36 1432.78 522.124C1432.93 521.887 1433.01 521.611 1433.01 521.294C1433.01 520.983 1432.93 520.713 1432.79 520.483C1432.64 520.249 1432.44 520.07 1432.17 519.945C1431.91 519.816 1431.61 519.752 1431.26 519.752C1430.91 519.752 1430.6 519.816 1430.33 519.945C1430.07 520.07 1429.87 520.249 1429.72 520.483C1429.58 520.713 1429.51 520.983 1429.51 521.294C1429.51 521.611 1429.58 521.887 1429.73 522.124C1429.88 522.36 1430.08 522.544 1430.35 522.675C1430.61 522.807 1430.92 522.872 1431.26 522.872Z" fill="#999999"/>
<path d="M1439.37 528.217C1438.98 528.211 1438.6 528.139 1438.21 528.002C1437.82 527.864 1437.47 527.633 1437.15 527.307C1436.83 526.978 1436.57 526.534 1436.38 525.975C1436.19 525.413 1436.09 524.708 1436.09 523.859C1436.09 523.046 1436.17 522.325 1436.32 521.698C1436.48 521.067 1436.71 520.536 1437.01 520.106C1437.3 519.672 1437.66 519.344 1438.09 519.119C1438.51 518.895 1438.99 518.783 1439.52 518.783C1440.05 518.783 1440.52 518.886 1440.93 519.093C1441.34 519.296 1441.68 519.58 1441.94 519.945C1442.21 520.309 1442.37 520.729 1442.45 521.204H1441.33C1441.22 520.792 1441.02 520.45 1440.72 520.178C1440.42 519.906 1440.02 519.77 1439.52 519.77C1438.79 519.77 1438.21 520.079 1437.79 520.698C1437.37 521.317 1437.16 522.185 1437.16 523.303H1437.23C1437.4 523.049 1437.61 522.832 1437.85 522.653C1438.09 522.47 1438.35 522.33 1438.64 522.231C1438.93 522.133 1439.23 522.083 1439.56 522.083C1440.1 522.083 1440.59 522.215 1441.04 522.478C1441.49 522.738 1441.85 523.098 1442.12 523.558C1442.39 524.016 1442.52 524.54 1442.52 525.132C1442.52 525.7 1442.39 526.22 1442.13 526.693C1441.87 527.162 1441.5 527.535 1441.03 527.813C1440.56 528.088 1440.01 528.223 1439.37 528.217ZM1439.37 527.231C1439.76 527.231 1440.11 527.136 1440.41 526.948C1440.72 526.76 1440.97 526.507 1441.15 526.19C1441.33 525.874 1441.42 525.521 1441.42 525.132C1441.42 524.753 1441.33 524.407 1441.16 524.096C1440.98 523.783 1440.75 523.533 1440.44 523.348C1440.14 523.162 1439.8 523.07 1439.41 523.07C1439.12 523.07 1438.84 523.126 1438.59 523.24C1438.34 523.351 1438.12 523.503 1437.93 523.697C1437.74 523.892 1437.59 524.114 1437.49 524.365C1437.38 524.614 1437.32 524.875 1437.32 525.15C1437.32 525.515 1437.41 525.856 1437.59 526.172C1437.77 526.489 1438.01 526.745 1438.32 526.939C1438.63 527.133 1438.98 527.231 1439.37 527.231Z" fill="#999999"/>
<path d="M1448.15 518.909H1449.52L1452.73 526.531H1452.84L1456.05 518.909H1457.41V528.091H1456.34V521.115H1456.25L1453.3 528.091H1452.27L1449.32 521.115H1449.22V528.091H1448.15V518.909Z" fill="#999999"/>
<path d="M1425.21 534.566C1425.6 534.569 1425.98 534.641 1426.37 534.781C1426.76 534.922 1427.11 535.155 1427.43 535.481C1427.75 535.804 1428.01 536.244 1428.2 536.803C1428.39 537.362 1428.49 538.063 1428.49 538.906C1428.49 539.722 1428.41 540.447 1428.25 541.081C1428.09 541.712 1427.87 542.244 1427.57 542.677C1427.27 543.111 1426.91 543.439 1426.49 543.664C1426.07 543.888 1425.59 544 1425.06 544C1424.53 544 1424.06 543.898 1423.65 543.695C1423.23 543.489 1422.9 543.203 1422.63 542.839C1422.37 542.471 1422.2 542.045 1422.13 541.561H1423.25C1423.36 541.982 1423.56 542.33 1423.86 542.605C1424.16 542.877 1424.56 543.013 1425.06 543.013C1425.79 543.013 1426.36 542.704 1426.79 542.085C1427.21 541.466 1427.42 540.592 1427.42 539.462H1427.35C1427.18 539.713 1426.97 539.93 1426.73 540.112C1426.5 540.295 1426.24 540.435 1425.95 540.534C1425.66 540.633 1425.35 540.682 1425.02 540.682C1424.48 540.682 1423.99 540.552 1423.54 540.292C1423.09 540.029 1422.73 539.669 1422.46 539.211C1422.19 538.751 1422.06 538.225 1422.06 537.633C1422.06 537.071 1422.18 536.557 1422.44 536.09C1422.7 535.621 1423.07 535.248 1423.54 534.97C1424.01 534.692 1424.57 534.557 1425.21 534.566ZM1425.21 535.552C1424.82 535.552 1424.47 535.647 1424.16 535.835C1423.85 536.02 1423.61 536.271 1423.43 536.588C1423.25 536.902 1423.16 537.25 1423.16 537.633C1423.16 538.016 1423.25 538.364 1423.42 538.678C1423.6 538.988 1423.83 539.237 1424.13 539.422C1424.44 539.604 1424.78 539.695 1425.17 539.695C1425.46 539.695 1425.74 539.64 1425.99 539.53C1426.24 539.416 1426.46 539.262 1426.65 539.068C1426.84 538.87 1426.99 538.648 1427.09 538.4C1427.2 538.149 1427.26 537.887 1427.26 537.615C1427.26 537.256 1427.17 536.92 1426.99 536.606C1426.81 536.292 1426.57 536.038 1426.26 535.844C1425.95 535.65 1425.6 535.552 1425.21 535.552Z" fill="#999999"/>
<path d="M1430.35 543.874L1434.57 535.75V535.678H1429.7V534.692H1435.75V535.732L1431.54 543.874H1430.35Z" fill="#999999"/>
<path d="M1440.3 544C1439.67 544 1439.11 543.891 1438.62 543.672C1438.14 543.451 1437.76 543.148 1437.49 542.762C1437.22 542.374 1437.09 541.931 1437.09 541.435C1437.09 541.047 1437.17 540.688 1437.33 540.359C1437.49 540.027 1437.71 539.751 1437.98 539.53C1438.26 539.305 1438.57 539.163 1438.92 539.104V539.05C1438.47 538.936 1438.11 538.69 1437.84 538.31C1437.57 537.927 1437.44 537.492 1437.44 537.005C1437.44 536.539 1437.56 536.122 1437.81 535.754C1438.05 535.387 1438.39 535.097 1438.82 534.884C1439.25 534.672 1439.75 534.566 1440.3 534.566C1440.85 534.566 1441.34 534.672 1441.77 534.884C1442.2 535.097 1442.53 535.387 1442.78 535.754C1443.03 536.122 1443.16 536.539 1443.16 537.005C1443.16 537.492 1443.02 537.927 1442.75 538.31C1442.48 538.69 1442.13 538.936 1441.68 539.05V539.104C1442.02 539.163 1442.33 539.305 1442.61 539.53C1442.88 539.751 1443.1 540.027 1443.26 540.359C1443.42 540.688 1443.51 541.047 1443.51 541.435C1443.51 541.931 1443.37 542.374 1443.09 542.762C1442.82 543.148 1442.45 543.451 1441.96 543.672C1441.49 543.891 1440.93 544 1440.3 544ZM1440.3 543.013C1440.73 543.013 1441.1 542.946 1441.41 542.812C1441.72 542.677 1441.96 542.487 1442.13 542.242C1442.3 541.997 1442.38 541.71 1442.38 541.381C1442.38 541.035 1442.29 540.728 1442.11 540.462C1441.93 540.196 1441.68 539.987 1441.37 539.834C1441.06 539.682 1440.7 539.606 1440.3 539.606C1439.9 539.606 1439.54 539.682 1439.22 539.834C1438.91 539.987 1438.66 540.196 1438.48 540.462C1438.3 540.728 1438.21 541.035 1438.22 541.381C1438.21 541.71 1438.3 541.997 1438.46 542.242C1438.63 542.487 1438.87 542.677 1439.18 542.812C1439.5 542.946 1439.87 543.013 1440.3 543.013ZM1440.3 538.655C1440.64 538.655 1440.94 538.589 1441.2 538.458C1441.46 538.326 1441.67 538.143 1441.82 537.906C1441.97 537.67 1442.05 537.394 1442.05 537.077C1442.05 536.766 1441.97 536.496 1441.83 536.265C1441.68 536.032 1441.47 535.853 1441.21 535.727C1440.95 535.599 1440.65 535.534 1440.3 535.534C1439.95 535.534 1439.64 535.599 1439.37 535.727C1439.11 535.853 1438.91 536.032 1438.76 536.265C1438.62 536.496 1438.55 536.766 1438.55 537.077C1438.55 537.394 1438.62 537.67 1438.77 537.906C1438.92 538.143 1439.12 538.326 1439.39 538.458C1439.65 538.589 1439.96 538.655 1440.3 538.655Z" fill="#999999"/>
<path d="M1448.41 544C1448.02 543.994 1447.64 543.922 1447.25 543.785C1446.86 543.647 1446.51 543.415 1446.19 543.09C1445.87 542.761 1445.61 542.317 1445.42 541.758C1445.23 541.196 1445.13 540.491 1445.13 539.642C1445.13 538.829 1445.21 538.108 1445.36 537.48C1445.52 536.85 1445.75 536.319 1446.05 535.889C1446.34 535.455 1446.7 535.126 1447.12 534.902C1447.55 534.678 1448.03 534.566 1448.56 534.566C1449.09 534.566 1449.56 534.669 1449.97 534.875C1450.38 535.079 1450.72 535.363 1450.98 535.727C1451.24 536.092 1451.41 536.512 1451.49 536.987H1450.37C1450.26 536.575 1450.06 536.232 1449.76 535.96C1449.46 535.688 1449.06 535.552 1448.56 535.552C1447.83 535.552 1447.25 535.862 1446.83 536.481C1446.41 537.099 1446.2 537.968 1446.2 539.086H1446.27C1446.44 538.832 1446.65 538.615 1446.88 538.435C1447.12 538.253 1447.39 538.113 1447.68 538.014C1447.97 537.915 1448.27 537.866 1448.6 537.866C1449.14 537.866 1449.63 537.998 1450.08 538.261C1450.53 538.521 1450.89 538.881 1451.16 539.341C1451.43 539.799 1451.56 540.323 1451.56 540.915C1451.56 541.483 1451.43 542.003 1451.17 542.475C1450.91 542.945 1450.54 543.318 1450.07 543.596C1449.6 543.871 1449.05 544.006 1448.41 544ZM1448.41 543.013C1448.8 543.013 1449.15 542.919 1449.45 542.731C1449.76 542.543 1450.01 542.29 1450.19 541.973C1450.37 541.656 1450.46 541.304 1450.46 540.915C1450.46 540.535 1450.37 540.19 1450.19 539.879C1450.02 539.565 1449.78 539.316 1449.48 539.13C1449.18 538.945 1448.83 538.852 1448.45 538.852C1448.16 538.852 1447.88 538.909 1447.63 539.023C1447.38 539.133 1447.16 539.286 1446.97 539.48C1446.78 539.674 1446.63 539.897 1446.53 540.148C1446.42 540.396 1446.36 540.658 1446.36 540.933C1446.36 541.298 1446.45 541.638 1446.63 541.955C1446.8 542.272 1447.05 542.528 1447.36 542.722C1447.67 542.916 1448.02 543.013 1448.41 543.013Z" fill="#999999"/>
<path d="M1457.45 538.79V539.776H1453.32V538.79H1457.45Z" fill="#999999"/>
<path d="M1462.48 544C1462.1 543.994 1461.71 543.922 1461.32 543.785C1460.93 543.647 1460.58 543.415 1460.26 543.09C1459.94 542.761 1459.68 542.317 1459.49 541.758C1459.3 541.196 1459.2 540.491 1459.2 539.642C1459.2 538.829 1459.28 538.108 1459.44 537.48C1459.59 536.85 1459.82 536.319 1460.12 535.889C1460.42 535.455 1460.78 535.126 1461.2 534.902C1461.62 534.678 1462.1 534.566 1462.63 534.566C1463.16 534.566 1463.63 534.669 1464.04 534.875C1464.46 535.079 1464.79 535.363 1465.06 535.727C1465.32 536.092 1465.49 536.512 1465.56 536.987H1464.44C1464.33 536.575 1464.13 536.232 1463.83 535.96C1463.53 535.688 1463.13 535.552 1462.63 535.552C1461.9 535.552 1461.32 535.862 1460.9 536.481C1460.48 537.099 1460.27 537.968 1460.27 539.086H1460.34C1460.52 538.832 1460.72 538.615 1460.96 538.435C1461.2 538.253 1461.46 538.113 1461.75 538.014C1462.04 537.915 1462.34 537.866 1462.67 537.866C1463.21 537.866 1463.7 537.998 1464.15 538.261C1464.6 538.521 1464.96 538.881 1465.23 539.341C1465.5 539.799 1465.64 540.323 1465.64 540.915C1465.64 541.483 1465.51 542.003 1465.24 542.475C1464.98 542.945 1464.62 543.318 1464.14 543.596C1463.67 543.871 1463.12 544.006 1462.48 544ZM1462.48 543.013C1462.87 543.013 1463.22 542.919 1463.52 542.731C1463.84 542.543 1464.08 542.29 1464.26 541.973C1464.44 541.656 1464.53 541.304 1464.53 540.915C1464.53 540.535 1464.44 540.19 1464.27 539.879C1464.09 539.565 1463.86 539.316 1463.55 539.13C1463.25 538.945 1462.91 538.852 1462.52 538.852C1462.23 538.852 1461.96 538.909 1461.7 539.023C1461.45 539.133 1461.23 539.286 1461.04 539.48C1460.85 539.674 1460.7 539.897 1460.6 540.148C1460.49 540.396 1460.44 540.658 1460.44 540.933C1460.44 541.298 1460.52 541.638 1460.7 541.955C1460.88 542.272 1461.12 542.528 1461.43 542.722C1461.74 542.916 1462.09 543.013 1462.48 543.013Z" fill="#999999"/>
<path d="M1467.23 541.991V541.076L1471.38 534.692H1472.06V536.108H1471.6L1468.46 540.933V541.005H1474.05V541.991H1467.23ZM1471.67 543.874V534.692H1472.76V543.874H1471.67Z" fill="#999999"/>
<path d="M1478.97 544C1478.36 544 1477.82 543.898 1477.34 543.695C1476.87 543.492 1476.49 543.209 1476.21 542.847C1475.93 542.483 1475.78 542.06 1475.76 541.579H1476.92C1476.95 541.875 1477.05 542.13 1477.23 542.345C1477.42 542.558 1477.66 542.722 1477.96 542.839C1478.26 542.955 1478.59 543.013 1478.95 543.013C1479.36 543.013 1479.72 542.945 1480.03 542.807C1480.34 542.67 1480.59 542.478 1480.77 542.233C1480.94 541.988 1481.03 541.704 1481.03 541.381C1481.03 541.044 1480.95 540.746 1480.78 540.489C1480.6 540.229 1480.35 540.026 1480.02 539.879C1479.69 539.733 1479.28 539.66 1478.8 539.66H1478.05V538.673H1478.8C1479.18 538.673 1479.51 538.607 1479.79 538.476C1480.07 538.344 1480.3 538.159 1480.46 537.92C1480.62 537.681 1480.7 537.4 1480.7 537.077C1480.7 536.766 1480.63 536.496 1480.49 536.265C1480.35 536.035 1480.15 535.856 1479.89 535.727C1479.64 535.599 1479.33 535.534 1478.99 535.534C1478.66 535.534 1478.35 535.593 1478.06 535.709C1477.78 535.823 1477.55 535.989 1477.36 536.207C1477.18 536.422 1477.08 536.682 1477.07 536.987H1475.96C1475.98 536.506 1476.13 536.084 1476.41 535.723C1476.69 535.358 1477.06 535.074 1477.51 534.871C1477.96 534.668 1478.46 534.566 1479.01 534.566C1479.59 534.566 1480.09 534.681 1480.51 534.911C1480.93 535.138 1481.25 535.439 1481.47 535.812C1481.7 536.186 1481.81 536.59 1481.81 537.023C1481.81 537.54 1481.67 537.981 1481.39 538.346C1481.11 538.71 1480.74 538.963 1480.26 539.104V539.175C1480.86 539.271 1481.32 539.518 1481.66 539.915C1481.99 540.31 1482.16 540.798 1482.16 541.381C1482.16 541.88 1482.02 542.329 1481.74 542.726C1481.46 543.121 1481.08 543.432 1480.6 543.659C1480.13 543.886 1479.58 544 1478.97 544Z" fill="#999999"/>
<path d="M1484.04 543.874V543.067L1487.16 539.749C1487.53 539.361 1487.83 539.023 1488.06 538.736C1488.3 538.446 1488.48 538.174 1488.59 537.92C1488.71 537.663 1488.76 537.394 1488.76 537.113C1488.76 536.79 1488.68 536.51 1488.52 536.274C1488.37 536.038 1488.15 535.856 1487.88 535.727C1487.61 535.599 1487.3 535.534 1486.96 535.534C1486.59 535.534 1486.28 535.608 1486.01 535.754C1485.74 535.898 1485.53 536.099 1485.39 536.36C1485.24 536.62 1485.17 536.924 1485.17 537.274H1484.08C1484.08 536.736 1484.21 536.264 1484.46 535.857C1484.72 535.451 1485.07 535.134 1485.51 534.907C1485.95 534.68 1486.44 534.566 1486.99 534.566C1487.55 534.566 1488.04 534.68 1488.46 534.907C1488.89 535.134 1489.23 535.44 1489.47 535.826C1489.71 536.212 1489.83 536.64 1489.83 537.113C1489.83 537.451 1489.77 537.781 1489.65 538.104C1489.52 538.424 1489.31 538.781 1489 539.175C1488.7 539.567 1488.27 540.045 1487.73 540.61L1485.61 542.816V542.888H1490V543.874H1484.04Z" fill="#999999"/>
<path d="M1336.95 172.287C1336.85 171.956 1336.71 171.659 1336.54 171.397C1336.38 171.131 1336.18 170.905 1335.95 170.718C1335.72 170.531 1335.46 170.388 1335.17 170.289C1334.88 170.191 1334.56 170.142 1334.21 170.142C1333.64 170.142 1333.12 170.296 1332.65 170.604C1332.19 170.913 1331.82 171.367 1331.54 171.968C1331.27 172.568 1331.13 173.304 1331.13 174.177C1331.13 175.05 1331.27 175.786 1331.55 176.387C1331.82 176.987 1332.2 177.442 1332.68 177.75C1333.15 178.058 1333.69 178.213 1334.28 178.213C1334.84 178.213 1335.32 178.09 1335.74 177.843C1336.16 177.594 1336.49 177.243 1336.73 176.79C1336.97 176.334 1337.09 175.798 1337.09 175.181L1337.44 175.26H1334.55V174.177H1338.21V175.26C1338.21 176.09 1338.04 176.812 1337.71 177.425C1337.37 178.039 1336.91 178.514 1336.31 178.852C1335.73 179.187 1335.05 179.354 1334.28 179.354C1333.43 179.354 1332.68 179.144 1332.04 178.724C1331.4 178.304 1330.9 177.707 1330.54 176.933C1330.18 176.159 1330 175.24 1330 174.177C1330 173.38 1330.1 172.663 1330.31 172.027C1330.51 171.387 1330.8 170.842 1331.18 170.393C1331.56 169.943 1332 169.599 1332.51 169.359C1333.03 169.12 1333.59 169 1334.21 169C1334.72 169 1335.19 169.08 1335.63 169.241C1336.07 169.399 1336.46 169.623 1336.81 169.915C1337.16 170.204 1337.45 170.55 1337.68 170.954C1337.91 171.354 1338.07 171.799 1338.16 172.287H1336.95Z" fill="#999999"/>
<path d="M1340.21 179.216V169.138H1341.37V173.626H1346.5V169.138H1347.67V179.216H1346.5V174.709H1341.37V179.216H1340.21Z" fill="#999999"/>
<path d="M1350 179.216V169.138H1351.17V174.138H1351.28L1355.6 169.138H1357.12L1353.08 173.685L1357.12 179.216H1355.71L1352.37 174.531L1351.17 175.949V179.216H1350Z" fill="#999999"/>
<path d="M1366.34 173.636V174.718H1362.13V173.636H1366.34Z" fill="#999999"/>
<path d="M1371.77 177.15V176.146L1375.99 169.138H1376.69V170.693H1376.22L1373.02 175.988V176.067H1378.72V177.15H1371.77ZM1376.29 179.216V169.138H1377.4V179.216H1376.29Z" fill="#999999"/>
<path d="M1380.48 179.216V178.331L1383.66 174.689C1384.03 174.262 1384.34 173.892 1384.58 173.577C1384.82 173.259 1385 172.96 1385.11 172.681C1385.23 172.399 1385.29 172.104 1385.29 171.795C1385.29 171.441 1385.21 171.134 1385.05 170.875C1384.89 170.616 1384.67 170.416 1384.39 170.275C1384.11 170.134 1383.8 170.063 1383.45 170.063C1383.08 170.063 1382.76 170.143 1382.48 170.304C1382.21 170.462 1382 170.683 1381.85 170.968C1381.7 171.254 1381.63 171.589 1381.63 171.972H1380.52C1380.52 171.382 1380.65 170.864 1380.91 170.417C1381.17 169.971 1381.52 169.623 1381.97 169.374C1382.42 169.125 1382.93 169 1383.49 169C1384.05 169 1384.55 169.125 1384.99 169.374C1385.42 169.623 1385.76 169.96 1386.01 170.383C1386.26 170.806 1386.38 171.277 1386.38 171.795C1386.38 172.166 1386.32 172.529 1386.19 172.883C1386.06 173.234 1385.84 173.626 1385.53 174.059C1385.22 174.489 1384.79 175.014 1384.24 175.634L1382.08 178.055V178.134H1386.55V179.216H1380.48Z" fill="#999999"/>
<path d="M1391.57 179.354C1390.93 179.354 1390.36 179.235 1389.86 178.995C1389.37 178.752 1388.99 178.419 1388.71 177.996C1388.44 177.57 1388.3 177.084 1388.3 176.539C1388.3 176.113 1388.38 175.719 1388.54 175.358C1388.7 174.994 1388.93 174.691 1389.21 174.448C1389.49 174.202 1389.81 174.046 1390.16 173.98V173.921C1389.7 173.797 1389.34 173.526 1389.06 173.109C1388.79 172.689 1388.66 172.212 1388.66 171.677C1388.66 171.165 1388.78 170.708 1389.03 170.304C1389.28 169.901 1389.63 169.582 1390.06 169.349C1390.51 169.116 1391.01 169 1391.57 169C1392.13 169 1392.63 169.116 1393.07 169.349C1393.5 169.582 1393.85 169.901 1394.1 170.304C1394.35 170.708 1394.48 171.165 1394.49 171.677C1394.48 172.212 1394.34 172.689 1394.07 173.109C1393.79 173.526 1393.43 173.797 1392.98 173.921V173.98C1393.33 174.046 1393.64 174.202 1393.92 174.448C1394.2 174.691 1394.42 174.994 1394.59 175.358C1394.75 175.719 1394.84 176.113 1394.84 176.539C1394.84 177.084 1394.7 177.57 1394.42 177.996C1394.14 178.419 1393.76 178.752 1393.27 178.995C1392.78 179.235 1392.21 179.354 1391.57 179.354ZM1391.57 178.272C1392.01 178.272 1392.38 178.198 1392.7 178.05C1393.02 177.903 1393.26 177.694 1393.43 177.425C1393.61 177.156 1393.69 176.841 1393.7 176.48C1393.69 176.1 1393.6 175.763 1393.41 175.471C1393.23 175.179 1392.98 174.95 1392.66 174.782C1392.34 174.615 1391.98 174.531 1391.57 174.531C1391.16 174.531 1390.8 174.615 1390.47 174.782C1390.15 174.95 1389.9 175.179 1389.72 175.471C1389.53 175.763 1389.45 176.1 1389.45 176.48C1389.45 176.841 1389.53 177.156 1389.7 177.425C1389.87 177.694 1390.12 177.903 1390.44 178.05C1390.75 178.198 1391.13 178.272 1391.57 178.272ZM1391.57 173.488C1391.92 173.488 1392.22 173.416 1392.49 173.272C1392.76 173.127 1392.97 172.926 1393.12 172.666C1393.28 172.407 1393.35 172.104 1393.36 171.756C1393.35 171.415 1393.28 171.118 1393.13 170.865C1392.98 170.609 1392.77 170.412 1392.5 170.275C1392.24 170.134 1391.93 170.063 1391.57 170.063C1391.21 170.063 1390.9 170.134 1390.63 170.275C1390.36 170.412 1390.15 170.609 1390 170.865C1389.86 171.118 1389.78 171.415 1389.79 171.756C1389.78 172.104 1389.86 172.407 1390.01 172.666C1390.16 172.926 1390.37 173.127 1390.64 173.272C1390.91 173.416 1391.22 173.488 1391.57 173.488Z" fill="#999999"/>
<path d="M1396.64 179.216V178.331L1399.82 174.689C1400.19 174.262 1400.5 173.892 1400.74 173.577C1400.98 173.259 1401.16 172.96 1401.28 172.681C1401.39 172.399 1401.45 172.104 1401.45 171.795C1401.45 171.441 1401.37 171.134 1401.21 170.875C1401.05 170.616 1400.83 170.416 1400.55 170.275C1400.27 170.134 1399.96 170.063 1399.61 170.063C1399.24 170.063 1398.92 170.143 1398.64 170.304C1398.37 170.462 1398.16 170.683 1398.01 170.968C1397.86 171.254 1397.79 171.589 1397.79 171.972H1396.68C1396.68 171.382 1396.81 170.864 1397.07 170.417C1397.33 169.971 1397.68 169.623 1398.13 169.374C1398.58 169.125 1399.09 169 1399.65 169C1400.21 169 1400.71 169.125 1401.15 169.374C1401.58 169.623 1401.93 169.96 1402.17 170.383C1402.42 170.806 1402.54 171.277 1402.54 171.795C1402.54 172.166 1402.48 172.529 1402.35 172.883C1402.23 173.234 1402.01 173.626 1401.69 174.059C1401.38 174.489 1400.95 175.014 1400.4 175.634L1398.24 178.055V178.134H1402.71V179.216H1396.64Z" fill="#999999"/>
<path d="M1330.38 196.539V186.461H1333.63C1334.38 186.461 1335 186.595 1335.48 186.864C1335.96 187.13 1336.32 187.496 1336.55 187.962C1336.78 188.427 1336.9 188.957 1336.9 189.551C1336.9 190.145 1336.78 190.671 1336.55 191.131C1336.32 191.59 1335.96 191.951 1335.48 192.213C1335 192.473 1334.39 192.602 1333.65 192.602H1331.01V191.5H1333.61C1334.12 191.5 1334.54 191.421 1334.85 191.264C1335.16 191.106 1335.39 190.883 1335.53 190.594C1335.68 190.302 1335.75 189.955 1335.75 189.551C1335.75 189.148 1335.68 188.795 1335.53 188.493C1335.39 188.191 1335.16 187.958 1334.84 187.794C1334.53 187.627 1334.11 187.543 1333.59 187.543H1331.54V196.539H1330.38ZM1334.91 192.012L1337.27 196.539H1335.92L1333.59 192.012H1334.91Z" fill="#999999"/>
<path d="M1340 186.461V196.539H1338.84V186.461H1340Z" fill="#999999"/>
<path d="M1347.6 188.98C1347.55 188.482 1347.32 188.094 1346.92 187.819C1346.52 187.543 1346.02 187.405 1345.44 187.405C1345.01 187.405 1344.64 187.478 1344.32 187.622C1344.01 187.766 1343.76 187.965 1343.58 188.217C1343.41 188.47 1343.32 188.757 1343.32 189.079C1343.32 189.348 1343.38 189.579 1343.5 189.773C1343.63 189.963 1343.79 190.122 1343.98 190.25C1344.17 190.375 1344.38 190.478 1344.59 190.56C1344.8 190.639 1345 190.703 1345.18 190.752L1346.16 191.027C1346.41 191.096 1346.68 191.191 1346.99 191.313C1347.3 191.434 1347.6 191.6 1347.88 191.81C1348.16 192.017 1348.4 192.282 1348.58 192.607C1348.77 192.932 1348.86 193.331 1348.86 193.803C1348.86 194.348 1348.73 194.84 1348.45 195.279C1348.18 195.719 1347.79 196.068 1347.27 196.328C1346.75 196.587 1346.12 196.716 1345.38 196.716C1344.7 196.716 1344.1 196.6 1343.59 196.367C1343.09 196.134 1342.7 195.809 1342.41 195.393C1342.13 194.976 1341.96 194.492 1341.93 193.941H1343.13C1343.16 194.321 1343.28 194.636 1343.5 194.886C1343.71 195.132 1343.98 195.315 1344.31 195.437C1344.65 195.555 1345 195.614 1345.38 195.614C1345.83 195.614 1346.23 195.539 1346.58 195.388C1346.94 195.233 1347.22 195.02 1347.42 194.748C1347.63 194.472 1347.73 194.151 1347.73 193.783C1347.73 193.449 1347.64 193.176 1347.47 192.966C1347.29 192.756 1347.05 192.586 1346.76 192.455C1346.47 192.323 1346.16 192.209 1345.82 192.11L1344.63 191.756C1343.88 191.529 1343.29 191.206 1342.85 190.786C1342.41 190.366 1342.19 189.817 1342.19 189.138C1342.19 188.573 1342.34 188.081 1342.63 187.661C1342.92 187.238 1343.32 186.91 1343.81 186.677C1344.31 186.441 1344.86 186.323 1345.48 186.323C1346.1 186.323 1346.65 186.439 1347.13 186.672C1347.61 186.902 1348 187.217 1348.28 187.617C1348.56 188.017 1348.71 188.472 1348.73 188.98H1347.6Z" fill="#999999"/>
<path d="M1350.78 196.539V186.461H1351.94V191.461H1352.05L1356.38 186.461H1357.9L1353.86 191.008L1357.9 196.539H1356.49L1353.14 191.854L1351.94 193.272V196.539H1350.78Z" fill="#999999"/>
<path d="M1366.1 196.677C1365.39 196.677 1364.79 196.475 1364.29 196.072C1363.79 195.665 1363.41 195.076 1363.15 194.305C1362.88 193.531 1362.75 192.596 1362.75 191.5C1362.75 190.411 1362.88 189.481 1363.15 188.71C1363.41 187.935 1363.8 187.345 1364.29 186.938C1364.8 186.528 1365.4 186.323 1366.1 186.323C1366.8 186.323 1367.4 186.528 1367.9 186.938C1368.4 187.345 1368.78 187.935 1369.04 188.71C1369.31 189.481 1369.44 190.411 1369.44 191.5C1369.44 192.596 1369.31 193.531 1369.05 194.305C1368.79 195.076 1368.41 195.665 1367.91 196.072C1367.41 196.475 1366.81 196.677 1366.1 196.677ZM1366.1 195.594C1366.8 195.594 1367.34 195.24 1367.73 194.531C1368.12 193.823 1368.32 192.812 1368.32 191.5C1368.32 190.627 1368.23 189.884 1368.05 189.271C1367.87 188.657 1367.62 188.19 1367.29 187.868C1366.96 187.547 1366.56 187.386 1366.1 187.386C1365.4 187.386 1364.86 187.745 1364.47 188.463C1364.08 189.179 1363.88 190.191 1363.88 191.5C1363.88 192.373 1363.97 193.114 1364.14 193.724C1364.32 194.335 1364.57 194.799 1364.9 195.117C1365.23 195.435 1365.63 195.594 1366.1 195.594Z" fill="#999999"/>
<path d="M1374.31 196.677C1373.67 196.677 1373.1 196.557 1372.6 196.318C1372.11 196.075 1371.73 195.742 1371.45 195.319C1371.17 194.892 1371.04 194.407 1371.04 193.862C1371.04 193.436 1371.12 193.042 1371.28 192.681C1371.44 192.317 1371.67 192.013 1371.95 191.771C1372.23 191.524 1372.55 191.369 1372.9 191.303V191.244C1372.44 191.119 1372.07 190.849 1371.8 190.432C1371.53 190.012 1371.39 189.535 1371.4 189C1371.39 188.488 1371.52 188.03 1371.77 187.627C1372.02 187.223 1372.36 186.905 1372.8 186.672C1373.24 186.439 1373.75 186.323 1374.31 186.323C1374.87 186.323 1375.37 186.439 1375.8 186.672C1376.24 186.905 1376.59 187.223 1376.84 187.627C1377.09 188.03 1377.22 188.488 1377.22 189C1377.22 189.535 1377.08 190.012 1376.81 190.432C1376.53 190.849 1376.17 191.119 1375.72 191.244V191.303C1376.07 191.369 1376.38 191.524 1376.66 191.771C1376.94 192.013 1377.16 192.317 1377.33 192.681C1377.49 193.042 1377.58 193.436 1377.58 193.862C1377.58 194.407 1377.44 194.892 1377.16 195.319C1376.88 195.742 1376.5 196.075 1376.01 196.318C1375.52 196.557 1374.95 196.677 1374.31 196.677ZM1374.31 195.594C1374.75 195.594 1375.12 195.521 1375.44 195.373C1375.75 195.225 1376 195.017 1376.17 194.748C1376.34 194.479 1376.43 194.164 1376.43 193.803C1376.43 193.422 1376.34 193.086 1376.15 192.794C1375.97 192.502 1375.72 192.273 1375.4 192.105C1375.08 191.938 1374.72 191.854 1374.31 191.854C1373.9 191.854 1373.53 191.938 1373.21 192.105C1372.89 192.273 1372.64 192.502 1372.45 192.794C1372.27 193.086 1372.18 193.422 1372.19 193.803C1372.18 194.164 1372.27 194.479 1372.44 194.748C1372.61 195.017 1372.85 195.225 1373.17 195.373C1373.49 195.521 1373.87 195.594 1374.31 195.594ZM1374.31 190.811C1374.66 190.811 1374.96 190.739 1375.23 190.594C1375.5 190.45 1375.71 190.248 1375.86 189.989C1376.01 189.73 1376.09 189.426 1376.1 189.079C1376.09 188.737 1376.02 188.441 1375.87 188.188C1375.72 187.932 1375.51 187.735 1375.24 187.597C1374.97 187.456 1374.66 187.386 1374.31 187.386C1373.95 187.386 1373.64 187.456 1373.37 187.597C1373.1 187.735 1372.89 187.932 1372.74 188.188C1372.59 188.441 1372.52 188.737 1372.53 189.079C1372.52 189.426 1372.6 189.73 1372.75 189.989C1372.9 190.248 1373.11 190.45 1373.38 190.594C1373.65 190.739 1373.96 190.811 1374.31 190.811Z" fill="#999999"/>
<path d="M1382.8 185.988L1379.7 198.055H1378.69L1381.79 185.988H1382.8Z" fill="#999999"/>
<path d="M1387.48 186.461V196.539H1386.31V187.74H1386.26L1383.91 189.374V188.134L1386.31 186.461H1387.48Z" fill="#999999"/>
<path d="M1393.39 196.677C1392.68 196.677 1392.08 196.475 1391.58 196.072C1391.08 195.665 1390.7 195.076 1390.44 194.305C1390.17 193.531 1390.04 192.596 1390.04 191.5C1390.04 190.411 1390.17 189.481 1390.44 188.71C1390.7 187.935 1391.08 187.345 1391.58 186.938C1392.08 186.528 1392.68 186.323 1393.39 186.323C1394.09 186.323 1394.69 186.528 1395.19 186.938C1395.69 187.345 1396.07 187.935 1396.33 188.71C1396.6 189.481 1396.73 190.411 1396.73 191.5C1396.73 192.596 1396.6 193.531 1396.34 194.305C1396.07 195.076 1395.69 195.665 1395.19 196.072C1394.7 196.475 1394.09 196.677 1393.39 196.677ZM1393.39 195.594C1394.09 195.594 1394.63 195.24 1395.02 194.531C1395.41 193.823 1395.6 192.812 1395.6 191.5C1395.6 190.627 1395.51 189.884 1395.34 189.271C1395.16 188.657 1394.91 188.19 1394.57 187.868C1394.25 187.547 1393.85 187.386 1393.39 187.386C1392.69 187.386 1392.15 187.745 1391.76 188.463C1391.36 189.179 1391.17 190.191 1391.17 191.5C1391.17 192.373 1391.26 193.114 1391.43 193.724C1391.61 194.335 1391.86 194.799 1392.19 195.117C1392.52 195.435 1392.92 195.594 1393.39 195.594Z" fill="#999999"/>
<path d="M1401.65 196.677C1400.95 196.677 1400.34 196.475 1399.85 196.072C1399.35 195.665 1398.97 195.076 1398.7 194.305C1398.44 193.531 1398.31 192.596 1398.31 191.5C1398.31 190.411 1398.44 189.481 1398.7 188.71C1398.97 187.935 1399.35 187.345 1399.85 186.938C1400.35 186.528 1400.95 186.323 1401.65 186.323C1402.36 186.323 1402.96 186.528 1403.45 186.938C1403.96 187.345 1404.34 187.935 1404.6 188.71C1404.87 189.481 1405 190.411 1405 191.5C1405 192.596 1404.87 193.531 1404.61 194.305C1404.34 195.076 1403.96 195.665 1403.46 196.072C1402.97 196.475 1402.36 196.677 1401.65 196.677ZM1401.65 195.594C1402.36 195.594 1402.9 195.24 1403.29 194.531C1403.68 193.823 1403.87 192.812 1403.87 191.5C1403.87 190.627 1403.78 189.884 1403.6 189.271C1403.43 188.657 1403.18 188.19 1402.84 187.868C1402.51 187.547 1402.12 187.386 1401.65 187.386C1400.96 187.386 1400.42 187.745 1400.02 188.463C1399.63 189.179 1399.44 190.191 1399.44 191.5C1399.44 192.373 1399.52 193.114 1399.7 193.724C1399.88 194.335 1400.13 194.799 1400.46 195.117C1400.79 195.435 1401.19 195.594 1401.65 195.594Z" fill="#999999"/>
<path d="M1333.35 214C1332.64 214 1332.03 213.798 1331.54 213.394C1331.04 212.988 1330.66 212.399 1330.39 211.628C1330.13 210.853 1330 209.918 1330 208.823C1330 207.733 1330.13 206.803 1330.39 206.032C1330.66 205.258 1331.04 204.667 1331.54 204.261C1332.04 203.851 1332.64 203.646 1333.35 203.646C1334.05 203.646 1334.65 203.851 1335.14 204.261C1335.65 204.667 1336.03 205.258 1336.29 206.032C1336.56 206.803 1336.69 207.733 1336.69 208.823C1336.69 209.918 1336.56 210.853 1336.3 211.628C1336.03 212.399 1335.65 212.988 1335.15 213.394C1334.66 213.798 1334.05 214 1333.35 214ZM1333.35 212.917C1334.05 212.917 1334.59 212.563 1334.98 211.854C1335.37 211.145 1335.56 210.135 1335.56 208.823C1335.56 207.95 1335.47 207.207 1335.29 206.593C1335.12 205.98 1334.87 205.512 1334.53 205.191C1334.2 204.869 1333.81 204.708 1333.35 204.708C1332.65 204.708 1332.11 205.068 1331.71 205.786C1331.32 206.501 1331.13 207.514 1331.13 208.823C1331.13 209.695 1331.22 210.437 1331.39 211.047C1331.57 211.657 1331.82 212.122 1332.15 212.44C1332.48 212.758 1332.88 212.917 1333.35 212.917Z" fill="#999999"/>
<path d="M1341.67 214C1341.28 213.993 1340.88 213.914 1340.49 213.764C1340.09 213.613 1339.73 213.358 1339.41 213.001C1339.08 212.64 1338.82 212.153 1338.62 211.539C1338.42 210.922 1338.33 210.148 1338.33 209.216C1338.33 208.324 1338.41 207.533 1338.56 206.844C1338.72 206.152 1338.96 205.57 1339.26 205.097C1339.56 204.622 1339.93 204.261 1340.36 204.015C1340.79 203.769 1341.28 203.646 1341.82 203.646C1342.36 203.646 1342.84 203.759 1343.26 203.985C1343.68 204.208 1344.03 204.52 1344.29 204.92C1344.56 205.32 1344.73 205.781 1344.81 206.303H1343.66C1343.56 205.85 1343.35 205.475 1343.04 205.176C1342.74 204.877 1342.33 204.728 1341.82 204.728C1341.08 204.728 1340.49 205.068 1340.06 205.747C1339.63 206.426 1339.42 207.379 1339.42 208.606H1339.49C1339.67 208.327 1339.87 208.089 1340.12 207.893C1340.36 207.692 1340.63 207.538 1340.92 207.43C1341.22 207.322 1341.53 207.268 1341.86 207.268C1342.41 207.268 1342.91 207.412 1343.37 207.701C1343.83 207.986 1344.2 208.381 1344.47 208.887C1344.75 209.389 1344.88 209.964 1344.88 210.614C1344.88 211.237 1344.75 211.808 1344.48 212.327C1344.22 212.842 1343.84 213.252 1343.36 213.557C1342.88 213.859 1342.32 214.006 1341.67 214ZM1341.67 212.917C1342.07 212.917 1342.42 212.814 1342.73 212.607C1343.05 212.4 1343.3 212.123 1343.48 211.775C1343.66 211.428 1343.76 211.04 1343.76 210.614C1343.76 210.197 1343.67 209.818 1343.49 209.477C1343.31 209.133 1343.07 208.859 1342.76 208.655C1342.45 208.452 1342.1 208.35 1341.71 208.35C1341.41 208.35 1341.13 208.413 1340.88 208.537C1340.62 208.659 1340.39 208.826 1340.2 209.039C1340.01 209.252 1339.86 209.497 1339.75 209.772C1339.64 210.045 1339.58 210.332 1339.58 210.634C1339.58 211.034 1339.67 211.408 1339.85 211.756C1340.03 212.103 1340.28 212.384 1340.59 212.597C1340.91 212.81 1341.27 212.917 1341.67 212.917Z" fill="#999999"/>
<path d="M1347.56 212.573C1347.33 212.573 1347.13 212.486 1346.96 212.312C1346.8 212.138 1346.71 211.93 1346.71 211.687C1346.71 211.444 1346.8 211.236 1346.96 211.062C1347.13 210.888 1347.33 210.801 1347.56 210.801C1347.79 210.801 1347.99 210.888 1348.16 211.062C1348.32 211.236 1348.4 211.444 1348.4 211.687C1348.4 211.848 1348.37 211.995 1348.29 212.13C1348.21 212.264 1348.11 212.373 1347.98 212.455C1347.86 212.533 1347.72 212.573 1347.56 212.573ZM1347.56 207.474C1347.33 207.474 1347.13 207.387 1346.96 207.213C1346.8 207.04 1346.71 206.831 1346.71 206.588C1346.71 206.346 1346.8 206.137 1346.96 205.963C1347.13 205.79 1347.33 205.703 1347.56 205.703C1347.79 205.703 1347.99 205.79 1348.16 205.963C1348.32 206.137 1348.4 206.346 1348.4 206.588C1348.4 206.749 1348.37 206.897 1348.29 207.031C1348.21 207.166 1348.11 207.274 1347.98 207.356C1347.86 207.435 1347.72 207.474 1347.56 207.474Z" fill="#999999"/>
<path d="M1350.15 211.795V210.791L1354.38 203.783H1355.07V205.338H1354.6L1351.41 210.634V210.712H1357.1V211.795H1350.15ZM1354.68 213.862V203.783H1355.79V213.862H1354.68Z" fill="#999999"/>
<path d="M1362.06 214C1361.66 213.993 1361.27 213.914 1360.87 213.764C1360.48 213.613 1360.12 213.358 1359.79 213.001C1359.47 212.64 1359.21 212.153 1359.01 211.539C1358.81 210.922 1358.71 210.148 1358.71 209.216C1358.71 208.324 1358.79 207.533 1358.95 206.844C1359.11 206.152 1359.34 205.57 1359.65 205.097C1359.95 204.622 1360.32 204.261 1360.75 204.015C1361.18 203.769 1361.67 203.646 1362.21 203.646C1362.75 203.646 1363.23 203.759 1363.65 203.985C1364.07 204.208 1364.41 204.52 1364.68 204.92C1364.95 205.32 1365.12 205.781 1365.2 206.303H1364.05C1363.94 205.85 1363.74 205.475 1363.43 205.176C1363.12 204.877 1362.72 204.728 1362.21 204.728C1361.46 204.728 1360.88 205.068 1360.45 205.747C1360.02 206.426 1359.81 207.379 1359.8 208.606H1359.88C1360.05 208.327 1360.26 208.089 1360.5 207.893C1360.75 207.692 1361.02 207.538 1361.31 207.43C1361.61 207.322 1361.92 207.268 1362.25 207.268C1362.8 207.268 1363.3 207.412 1363.76 207.701C1364.22 207.986 1364.58 208.381 1364.86 208.887C1365.13 209.389 1365.27 209.964 1365.27 210.614C1365.27 211.237 1365.14 211.808 1364.87 212.327C1364.61 212.842 1364.23 213.252 1363.75 213.557C1363.27 213.859 1362.71 214.006 1362.06 214ZM1362.06 212.917C1362.45 212.917 1362.81 212.814 1363.12 212.607C1363.44 212.4 1363.69 212.123 1363.87 211.775C1364.05 211.428 1364.14 211.04 1364.14 210.614C1364.14 210.197 1364.06 209.818 1363.88 209.477C1363.7 209.133 1363.46 208.859 1363.15 208.655C1362.84 208.452 1362.49 208.35 1362.1 208.35C1361.8 208.35 1361.52 208.413 1361.26 208.537C1361.01 208.659 1360.78 208.826 1360.59 209.039C1360.4 209.252 1360.25 209.497 1360.14 209.772C1360.03 210.045 1359.97 210.332 1359.97 210.634C1359.97 211.034 1360.06 211.408 1360.24 211.756C1360.42 212.103 1360.67 212.384 1360.98 212.597C1361.3 212.81 1361.66 212.917 1362.06 212.917Z" fill="#999999"/>
<path d="M1367.95 212.573C1367.72 212.573 1367.52 212.486 1367.35 212.312C1367.18 212.138 1367.1 211.93 1367.1 211.687C1367.1 211.444 1367.18 211.236 1367.35 211.062C1367.52 210.888 1367.72 210.801 1367.95 210.801C1368.18 210.801 1368.38 210.888 1368.54 211.062C1368.71 211.236 1368.79 211.444 1368.79 211.687C1368.79 211.848 1368.75 211.995 1368.68 212.13C1368.6 212.264 1368.5 212.373 1368.37 212.455C1368.24 212.533 1368.1 212.573 1367.95 212.573ZM1367.95 207.474C1367.72 207.474 1367.52 207.387 1367.35 207.213C1367.18 207.04 1367.1 206.831 1367.1 206.588C1367.1 206.346 1367.18 206.137 1367.35 205.963C1367.52 205.79 1367.72 205.703 1367.95 205.703C1368.18 205.703 1368.38 205.79 1368.54 205.963C1368.71 206.137 1368.79 206.346 1368.79 206.588C1368.79 206.749 1368.75 206.897 1368.68 207.031C1368.6 207.166 1368.5 207.274 1368.37 207.356C1368.24 207.435 1368.1 207.474 1367.95 207.474Z" fill="#999999"/>
<path d="M1374.15 203.783V213.862H1372.98V205.063H1372.92L1370.58 206.697V205.457L1372.98 203.783H1374.15Z" fill="#999999"/>
<path d="M1376.91 213.862V212.976L1380.09 209.334C1380.46 208.908 1380.77 208.537 1381.01 208.222C1381.25 207.904 1381.43 207.605 1381.55 207.327C1381.67 207.044 1381.72 206.749 1381.72 206.441C1381.72 206.086 1381.64 205.78 1381.48 205.52C1381.32 205.261 1381.1 205.061 1380.82 204.92C1380.54 204.779 1380.23 204.708 1379.88 204.708C1379.51 204.708 1379.19 204.789 1378.92 204.95C1378.64 205.107 1378.43 205.329 1378.28 205.614C1378.13 205.899 1378.06 206.234 1378.06 206.618H1376.95C1376.95 206.027 1377.08 205.509 1377.34 205.063C1377.6 204.617 1377.96 204.269 1378.4 204.02C1378.85 203.77 1379.36 203.646 1379.92 203.646C1380.48 203.646 1380.98 203.77 1381.42 204.02C1381.85 204.269 1382.2 204.605 1382.44 205.028C1382.69 205.452 1382.81 205.922 1382.81 206.441C1382.81 206.812 1382.75 207.174 1382.62 207.528C1382.5 207.879 1382.28 208.271 1381.96 208.705C1381.65 209.134 1381.22 209.659 1380.67 210.279L1378.51 212.701V212.779H1382.98V213.862H1376.91Z" fill="#999999"/>
<rect x="1339.5" y="470.5" width="189" height="151" stroke="#999999"/>
<rect x="290.5" y="571.5" width="127" height="110" stroke="#999999"/>
<rect x="311.5" y="589.5" width="9" height="9" stroke="#999999"/>
<rect x="1315.5" y="116.5" width="190" height="152" stroke="#999999"/>
<line x1="614.5" y1="594" x2="614.5" y2="955" stroke="#999999"/>
<line x1="1411" y1="553.5" x2="1950" y2="553.5" stroke="#999999"/>
<line x1="4.30389e-08" y1="593.5" x2="635" y2="593.5" stroke="#999999"/>
<line y1="228.5" x2="1920" y2="228.5" stroke="#999999"/>
<line y1="792.5" x2="1890" y2="792.5" stroke="#999999"/>
<line x1="315.5" y1="229" x2="315.5" y2="955" stroke="#999999"/>
<line x1="664.5" y1="2.18557e-08" x2="664.5" y2="229" stroke="#999999"/>
<line x1="1411.5" y1="2.18557e-08" x2="1411.5" y2="793" stroke="#999999"/>
<rect x="1408.5" y="549.5" width="9" height="9" stroke="#999999"/>
<rect x="1407.5" y="224.5" width="9" height="9" stroke="#999999"/>
</svg>
