<svg width="39" height="40" viewBox="0 0 39 40" fill="none" xmlns="http://www.w3.org/2000/svg">
<path fill-rule="evenodd" clip-rule="evenodd" d="M12.2975 26.2852H15.3942V16.9516H12.2975V26.2852ZM20.3447 21.3857C20.3447 20.0738 20.9922 19.2917 22.2317 19.2917C23.3705 19.2917 23.9174 20.0423 23.9174 21.3857V26.2852H27C27 26.2852 27 22.8759 27 20.3759C27 17.8759 25.4808 16.667 23.3596 16.667C21.2375 16.6667 20.3447 18.2089 20.3447 18.2089V16.9516H17.3741V26.2852H20.3447C20.3447 26.2852 20.3447 22.8237 20.3447 21.3857ZM13.8313 15.7299C14.8425 15.7299 15.6627 14.958 15.6627 14.0073C15.6627 13.0563 14.8425 12.2852 13.8313 12.2852C12.8195 12.2852 12 13.0563 12 14.0073C12 14.958 12.8195 15.7299 13.8313 15.7299Z" fill="white"/>
<circle cx="19.5" cy="19.7852" r="19" stroke="white" stroke-opacity="0.45"/>
</svg>
