<svg width="107" height="98" viewBox="0 0 107 98" fill="none" xmlns="http://www.w3.org/2000/svg">
<path d="M34.609 5.69977C34.981 3.72416 35.8031 2.02921 36.7649 1.25366L38.3197 0L38.5381 2.50198C38.7018 4.36842 38.3644 5.40982 37.2106 6.60186C35.6967 8.16562 35.6936 8.19977 37.0709 8.19977C38.586 8.19977 42.1148 10.5765 42.1148 11.5972C42.1148 12.8729 38.0226 12.1711 36.0442 10.5551C34.1098 8.97532 34.0381 8.73283 34.609 5.69977Z" fill="#959595"/>
<path d="M69.836 6.65011C68.8559 5.63751 68.3353 4.24391 68.3353 2.63191C68.3353 1.27373 68.5978 0.163388 68.9188 0.163388C70.1879 0.163388 71.8125 2.76587 72.3784 5.70315C72.9273 8.55339 72.8291 8.93242 71.1346 10.5076C69.3242 12.1905 64.8852 12.9647 64.8852 11.5972C64.8852 10.5765 68.414 8.19977 69.9291 8.19977C71.3184 8.19977 71.3171 8.18034 69.836 6.65011Z" fill="#959595"/>
<path d="M27.2562 9.29477C27.2883 7.29634 27.7365 5.1915 28.2621 4.57675C28.7839 3.96664 29.5525 3.5762 29.9698 3.70881C30.999 4.03559 31.3572 8.19308 30.4344 9.08849C29.166 10.3194 29.6205 11.5483 31.3427 11.5483C32.2491 11.5483 33.7246 12.145 34.6203 12.8743C36.0165 14.0101 36.1015 14.3001 35.2146 14.9014C33.9569 15.7533 30.9593 15.2939 28.7946 13.917C27.4394 13.0551 27.2077 12.3592 27.2562 9.29477Z" fill="#959595"/>
<path d="M76.616 9.20434C75.838 8.73755 75.6705 4.65238 76.4007 3.94453C77.9586 2.43169 80.2562 6.24762 79.7627 9.5271C79.47 11.4666 79.7275 12.1242 81.2911 13.4294C82.7829 14.6745 82.8326 14.7896 81.5303 13.988C80.0409 13.0699 79.6607 13.096 77.4003 14.2713C74.6149 15.7205 73.305 15.8611 71.7854 14.8726C70.9023 14.2987 70.9892 14.0054 72.3797 12.8743C73.2754 12.145 74.7509 11.5483 75.6573 11.5483C77.3216 11.5483 77.9524 10.0059 76.616 9.20434Z" fill="#959595"/>
<path d="M43.8074 6.75258C40.0665 8.40668 37.1193 7.04591 40.5411 5.2451C42.7537 4.08045 42.9998 4.0396 44.4728 4.58808C46.0364 5.17009 45.8243 5.86119 43.8074 6.75258Z" fill="#959595"/>
<path d="M62.8986 6.43981C61.6416 5.58525 61.4968 5.22495 62.2276 4.77563C62.5675 4.56668 63.0409 4.38102 63.4639 4.27768C63.6798 4.22495 63.8818 4.1937 64.0468 4.19166C65.4083 4.17623 68.3718 6.261 67.9438 6.93336C67.3364 7.88772 64.6403 7.62382 62.8986 6.43981Z" fill="#959595"/>
<path d="M20.6757 15.1077C19.7309 12.6975 19.8895 10.7065 21.1667 8.93715C22.245 7.44233 22.3344 7.42699 23.023 8.62036C23.8507 10.0561 24.0956 15.0575 23.3635 15.5819C23.0948 15.7741 24.0944 15.9314 25.5856 15.9314C27.2008 15.9314 28.7631 16.3848 29.4518 17.0532C30.5332 18.1026 30.4891 18.2278 28.7732 18.9866C27.3305 19.6242 26.3258 19.6195 24.0767 18.9658C21.3795 18.1816 21.1157 18.2299 19.4835 19.8137L17.7531 21.4939L20.4459 21.1812C21.9271 21.0097 23.6046 21.1893 24.1737 21.5797C25.0618 22.1897 24.9775 22.4784 23.5801 23.6162C21.776 25.0848 20.2924 25.259 17.7109 24.3067C16.1794 23.7415 15.8319 23.9283 14.5743 25.9976C13.2234 28.2197 13.219 28.2934 14.4811 27.6377C16.547 26.5649 20.7235 26.7658 20.7235 27.9385C20.7235 29.2946 17.157 30.9695 14.2702 30.9695C12.2169 30.9695 11.7838 31.2615 11.1273 33.0871C10.7093 34.2517 10.5236 35.3567 10.715 35.5429C10.8063 35.6312 10.8893 35.6434 10.9517 35.5919C11.0203 35.5351 11.0631 35.4012 11.0631 35.2067C11.0631 34.3053 14.1645 32.9786 16.2713 32.9786C18.3882 32.9786 18.4052 33.6597 16.3443 35.8182C15.3699 36.8388 13.5835 37.7014 11.8587 37.9839C10.2832 38.2424 8.98898 38.8043 8.98395 39.2322C8.97891 39.6602 8.77748 40.7639 8.5364 41.6847L8.09891 43.3589L9.78715 41.8622C11.3489 40.4779 15.8936 39.0133 15.8936 39.8953C15.8936 42.1702 11.7372 45.7029 9.06137 45.7029C8.64403 45.7029 8.30349 46.7985 8.30349 48.1373V50.5715L9.67259 48.8819C10.929 47.3323 14.2589 45.9018 14.9809 46.6023C15.8565 47.4528 13.0742 51.55 10.8226 52.7273C8.19207 54.1022 8.04478 54.4069 8.75797 56.9926C9.18601 58.545 9.20867 58.5369 10.0761 56.5339C10.562 55.4128 11.9141 54.0165 13.0818 53.4305L15.2037 52.3657V54.4706C15.2037 56.0176 14.5038 57.2545 12.565 59.1363C10.0931 61.5359 9.98103 61.8165 10.7842 63.5784C11.318 64.7498 11.6623 65.0364 11.6976 64.3385C11.7574 63.1305 14.9721 59.0968 15.8741 59.0968C16.8359 59.0968 17.2073 61.8574 16.4923 63.6889C16.1121 64.6627 15.1496 66.134 14.3533 66.9591C13.0604 68.2991 13.0031 68.6575 13.8164 70.3076L14.7272 72.156L15.2402 69.8984C15.5222 68.6575 16.4161 67 17.2262 66.2151C18.4921 64.9895 18.7917 64.9306 19.3563 65.7939C20.4082 67.4044 20.1394 69.9747 18.6324 72.7038L17.2313 75.2412L20.2256 78.8529L19.78 77.0435C19.3268 75.2044 21.1031 70.4817 22.2487 70.4817C22.5673 70.4817 23.1558 71.3108 23.5568 72.3234C24.2347 74.0358 24.1491 75.3899 23.0746 79.9653C22.7504 81.3476 22.9871 81.9195 24.1277 82.5121C25.4798 83.2147 25.5635 83.1417 25.1657 81.6027C24.7245 79.8964 25.9532 75.1696 26.8388 75.1696C27.107 75.1696 27.8982 76.1092 28.5969 77.2571C29.5625 78.8429 29.7722 80.126 29.47 82.5999C29.1263 85.4139 29.273 85.9912 30.5489 86.8592C32.1912 87.9756 33.1669 87.6481 31.8903 86.4091C31.1513 85.6919 30.6761 79.1878 31.3628 79.1878C33.7794 79.1878 35.9044 82.6079 35.9044 86.4975C35.9044 88.4705 36.2595 89.3706 37.2389 89.8795C39.2941 90.947 39.4761 90.7347 38.3373 88.5971C37.7582 87.5101 37.2842 85.5345 37.2842 84.2058V81.7909L39.3344 82.9662C41.3431 84.1175 43.4946 88.0144 43.4946 90.5003C43.4946 91.4299 44.1876 91.8484 46.2548 92.1692C50.5547 92.8369 49.7402 94.1636 45.3566 93.6318C42.1576 93.244 41.5288 93.3693 40.3548 94.6276C37.7809 97.3875 32.5122 98.9854 31.4547 97.3265C30.9442 96.5249 34.3723 92.5817 35.5803 92.5817C37.3226 92.5817 37.3497 91.2839 35.6168 90.8613C34.4372 90.5747 33.2462 90.8874 31.8513 91.8518C29.3019 93.6138 26.4102 94.1971 24.1995 93.3968L22.5005 92.782L24.4821 90.9986C25.5723 90.0182 27.4066 88.9794 28.5579 88.6895L30.6503 88.163L28.5183 87.3059C26.7174 86.5819 26.0583 86.6134 24.2788 87.5061C21.6545 88.8234 18.6419 88.8616 16.8882 87.6005C15.5644 86.6489 15.565 86.6248 16.9285 85.6015C17.6876 85.0322 19.498 84.3686 20.952 84.1268C23.5568 83.6935 23.5769 83.6681 22.2746 82.4043C21.1 81.2638 20.6077 81.2062 17.8412 81.882C15.3007 82.5028 14.2677 82.4546 12.2068 81.6188C10.8188 81.0562 9.68329 80.3155 9.68329 79.9727C9.68329 78.9574 13.6452 77.671 15.8194 77.9803C17.8066 78.2636 17.8179 78.2468 16.6912 76.7126C15.8999 75.6357 14.9123 75.1803 13.4784 75.2319C9.34149 75.3786 8.3463 75.1408 6.44404 73.5516L4.50842 71.9329L6.44278 71.4608C7.50784 71.2003 9.44787 71.1561 10.7546 71.3623C13.1252 71.7354 13.1296 71.7314 12.1949 70.0009C11.4817 68.6796 10.6174 68.2061 8.5729 68.0145C5.60433 67.7373 2.56022 65.9184 2.21527 64.216C1.90746 62.6992 6.69205 62.7045 8.4212 64.2234C9.79596 65.4309 10.0276 64.7511 9.0727 62.3134C8.64215 61.2144 7.53113 60.514 5.29967 59.9346C2.93979 59.3218 1.86906 58.61 1.08033 57.1293C0.498705 56.0383 0.022826 54.9554 0.022826 54.7237C0.022826 54.0513 4.34917 55.1122 6.1633 56.2298C7.80936 57.2438 7.81628 57.2365 7.36432 55.0412C7.1138 53.8263 6.83431 52.8104 6.74367 52.7836C6.70401 52.7719 6.43586 52.6469 6.02293 52.4485C5.48725 52.1914 4.70733 51.8112 3.86448 51.3953C1.33968 50.149 -0.772193 46.9211 0.273984 45.9058C0.939333 45.2602 4.84771 47.1428 5.91592 48.6228C6.8683 49.9427 6.92307 49.8671 6.92307 47.2365C6.92307 45.054 6.6291 44.3635 5.56089 44.034C3.66808 43.4513 1.40325 40.4799 1.40325 38.5806C1.40325 36.4182 2.93223 36.5743 5.42178 38.9912C7.09806 40.6179 7.55316 40.7933 7.88993 39.9408C8.66103 37.992 8.3079 36.8434 6.23317 34.5504C4.1918 32.2942 3.32943 28.2907 4.88422 28.2907C6.19603 28.2907 8.99276 31.5508 9.0236 33.1159C9.05004 34.4145 9.26406 34.2685 10.4047 32.1716L11.7542 29.6911L10.0289 27.2232C8.27517 24.7152 7.87986 22.6084 8.87694 21.0841C9.69021 19.8412 12.616 23.0945 12.616 25.2423C12.616 26.1818 12.7022 26.9514 12.8073 26.9514C12.9118 26.9514 13.6263 25.9883 14.3942 24.8117C15.6532 22.8809 15.6935 22.4912 14.8065 20.8269C13.3669 18.124 13.6508 13.5573 15.2591 13.5573C16.277 13.5573 18.1031 17.6566 17.7191 19.0803C17.4069 20.2383 17.6354 20.1693 19.3362 18.5868C20.993 17.0465 21.2114 16.4779 20.6757 15.1077Z" fill="#959595"/>
<path d="M83.8612 15.7539C82.8905 15.0186 82.8043 12.2897 83.666 9.58141L84.3988 7.27965L85.6822 8.81862C87.0948 10.5116 87.3075 12.5977 86.3243 15.1077C85.7855 16.4846 86.0121 17.0512 87.7488 18.6665C88.8963 19.7333 89.6221 20.101 89.3829 19.4942C88.8881 18.2432 90.7067 13.5573 91.6874 13.5573C93.3441 13.5573 93.6589 18.0758 92.1935 20.8269C91.3002 22.5025 91.3481 22.8836 92.7109 24.9791L94.2115 27.2862L94.4394 25.2771C94.7227 22.7771 97.3073 19.8358 98.1231 21.0841C99.1938 22.7202 98.6776 25.5316 96.9378 27.5373L95.1797 29.5658L96.5626 32.1093C97.7208 34.2403 97.9506 34.4031 97.9764 33.1139C98.0053 31.6559 100.985 28.2907 102.247 28.2907C102.572 28.2907 102.837 29.1278 102.837 30.1505C102.837 32.029 101.318 34.7091 99.4934 36.0525C98.7601 36.5916 98.6323 37.4609 99.0037 39.3816C99.4487 41.6834 99.5891 41.8293 100.227 40.6607C101.119 39.0247 103.581 37.0316 104.734 37.0115C107.252 36.968 104.359 43.1346 101.439 44.034C100.371 44.3635 100.077 45.054 100.077 47.2365C100.077 49.8671 100.132 49.9427 101.084 48.6228C102.152 47.1428 106.061 45.2602 106.726 45.9058C107.772 46.9211 105.66 50.149 103.136 51.3953C102.391 51.7625 101.697 52.1018 101.175 52.3532C100.65 52.6063 100.302 52.7701 100.256 52.7836C100.166 52.8104 99.8862 53.8263 99.6357 55.0412C99.1837 57.2365 99.1906 57.2438 100.837 56.2298C102.651 55.1122 106.977 54.0513 106.977 54.7237C106.977 54.9554 106.501 56.0383 105.92 57.1293C105.14 58.5939 104.06 59.3218 101.799 59.9085C99.3669 60.54 98.5895 61.1106 98.0261 62.6791C97.0744 65.3277 97.0895 65.3545 98.8507 64.1578C100.987 62.7051 105.083 62.7454 104.785 64.216C104.44 65.9184 101.396 67.7373 98.4271 68.0145C96.4367 68.2008 95.5152 68.6863 94.8649 69.8904C93.99 71.5104 93.9969 71.5144 97.5496 71.5003C101.637 71.4843 102.351 72.2832 99.8623 74.0867C98.6562 74.9606 97.0687 75.3243 94.6849 75.2721C91.7308 75.2071 91.0869 75.4335 90.1118 76.8773C88.9951 78.5321 89.0039 78.5516 90.6953 78.1397C92.6309 77.6683 97.3167 78.9447 97.3167 79.9439C97.3167 80.3022 96.1812 81.0562 94.7932 81.6188C92.7323 82.4546 91.6993 82.5028 89.1588 81.882C86.3482 81.1949 85.9101 81.2545 84.6285 82.4988L83.2097 83.8757H85.1535C87.1199 83.8757 91.1064 85.7508 91.1064 86.675C91.1064 87.4941 88.5728 88.5636 86.6321 88.5636C85.6401 88.5636 83.8801 88.0881 82.7212 87.5061C80.9417 86.6134 80.2827 86.5819 78.4817 87.3059L76.3497 88.163L78.4421 88.6895C79.5934 88.9794 81.4277 90.0182 82.5179 90.9986L84.4995 92.782L82.8005 93.3968C80.4973 94.2305 77.518 93.5675 74.9171 91.6422C73.0255 90.2418 72.5553 90.1494 71.1176 90.8961C69.4866 91.7433 69.486 91.7514 70.9457 92.2007C72.7416 92.7539 76.0841 96.4794 75.5453 97.3265C74.4878 98.9854 69.2191 97.3875 66.6452 94.6276C65.4712 93.3693 64.8424 93.244 61.6434 93.6318C57.2598 94.1636 56.4453 92.8369 60.7452 92.1692C62.8124 91.8484 63.5054 91.4299 63.5054 90.5003C63.5054 87.918 65.7652 83.8148 67.731 82.8283L69.7158 81.8325V84.2266C69.7158 85.5432 69.2418 87.5101 68.6627 88.5971C67.5239 90.7347 67.7059 90.947 69.7611 89.8795C70.7405 89.3706 71.0956 88.4705 71.0956 86.4975C71.0956 84.1898 72.6459 79.8575 73.4724 79.8575C73.621 79.8575 74.2341 79.6747 74.834 79.451C75.7341 79.1161 75.9261 79.5956 75.9261 82.174C75.9261 83.8951 75.5856 85.9202 75.1695 86.6744C74.4229 88.0285 74.4387 88.0311 76.4895 86.8551C78.2759 85.8312 78.4773 85.4408 77.936 84.0572C77.5898 83.1725 77.3059 81.6865 77.3059 80.7542C77.3059 78.7197 79.3982 75.0651 80.3808 75.3832C81.6499 75.7937 82.4348 79.8662 81.6398 81.9115L80.8995 83.8154L82.6111 82.7272C83.977 81.8585 84.2282 81.29 83.8587 79.9111C82.7798 75.8982 82.7489 72.8076 83.7731 71.4863L84.8104 70.1469L85.8667 71.4863C86.9393 72.8471 87.2899 74.4289 87.0545 76.8439C86.9261 78.1558 86.9531 78.1544 88.3795 76.7722L89.8355 75.3618L88.4009 72.764C86.8726 69.9968 86.5843 67.4172 87.6248 65.8206C88.5627 64.3807 90.82 66.5653 91.6339 69.7002L92.2703 72.156L93.1622 70.3511C93.9679 68.7191 93.8798 68.346 92.2344 66.4488C90.2679 64.1805 89.573 60.4001 90.8842 59.0975C91.4331 58.5524 95.242 63.0347 95.3024 64.2977C95.3396 65.0672 95.648 64.8241 96.2158 63.5784C97.019 61.8165 96.9069 61.5359 94.435 59.1363C92.4962 57.2545 91.7963 56.0176 91.7963 54.4706V52.3657L93.8962 53.4191C95.0513 53.9991 96.3473 55.2206 96.7766 56.1341C97.3438 57.3422 97.7089 57.5619 98.1155 56.9391C99.2026 55.2775 98.6713 54.0306 96.3637 52.8244C94.1675 51.6766 93.1717 50.3968 92.196 47.4702C91.8391 46.398 92.0474 46.2842 93.6866 46.6579C94.734 46.897 96.29 47.8512 97.1442 48.7788L98.6965 50.4658V48.0844C98.6965 46.7744 98.356 45.7029 97.9386 45.7029C95.2628 45.7029 91.1064 42.1702 91.1064 39.8953C91.1064 39.0133 95.6511 40.4779 97.2129 41.8622L98.9011 43.3589L98.4636 41.6847C98.2225 40.7639 98.0211 39.6602 98.0161 39.2322C98.011 38.8043 96.7168 38.2424 95.1413 37.9839C92.4988 37.5506 89.036 35.0359 89.036 33.5506C89.036 32.6424 92.6486 32.8942 94.729 33.9477C96.8868 35.0399 96.9183 35.0031 95.8255 32.6752C95.1967 31.3358 94.5225 30.9695 92.6863 30.9695C89.8367 30.9695 86.2765 29.2859 86.2765 27.9385C86.2765 26.7658 90.453 26.5649 92.5189 27.6377C93.7961 28.3014 93.7948 28.2492 92.4635 26.0593C91.1234 23.8553 91.0132 23.8132 88.4047 24.4888C86.2015 25.0594 85.4034 24.9798 83.9292 24.0428C82.9434 23.4153 82.1358 22.6317 82.1358 22.301C82.1358 21.4477 85.968 20.7385 87.6991 21.2723C89.1261 21.7116 89.1311 21.6862 87.9427 19.9262C86.9802 18.5011 86.3658 18.2138 84.9514 18.5285C80.0963 19.6074 78.9696 19.6355 77.6924 18.7114C76.4045 17.7791 76.441 17.6974 78.6284 16.5998C80.0271 15.898 81.6077 15.6153 82.7281 15.8671C83.7309 16.0922 84.2408 16.0419 83.8612 15.7539Z" fill="#959595"/>
<path d="M57.8594 33V65H52.0625V38.6406H51.875L44.3906 43.4219V38.1094L52.3438 33H57.8594Z" fill="#959595"/>
</svg>
