<svg width="89" height="94" viewBox="0 0 89 94" fill="none" xmlns="http://www.w3.org/2000/svg">
<path d="M33.625 19.9412C33.625 25.9188 28.7561 30.7647 22.75 30.7647M33.625 19.9412C33.625 13.9635 28.7561 9.11765 22.75 9.11765C16.7439 9.11765 11.875 13.9635 11.875 19.9412C11.875 25.9188 16.7439 30.7647 22.75 30.7647M33.625 19.9412L66.25 11.8235M22.75 30.7647L11.875 60.5294M66.25 11.8235C66.25 17.8012 71.1189 22.6471 77.125 22.6471M66.25 11.8235C66.25 5.84586 71.1189 1 77.125 1C83.1311 1 88 5.84586 88 11.8235C88 17.8012 83.1311 22.6471 77.125 22.6471M11.875 60.5294C5.8689 60.5294 1 65.3753 1 71.3529C1 77.3306 5.8689 82.1765 11.875 82.1765C17.8811 82.1765 22.75 77.3306 22.75 71.3529M11.875 60.5294C17.8811 60.5294 22.75 65.3753 22.75 71.3529M22.75 71.3529L60.8125 82.1765M60.8125 82.1765C60.8125 88.1541 65.6814 93 71.6875 93C77.6936 93 82.5625 88.1541 82.5625 82.1765C82.5625 76.1988 77.6936 71.3529 71.6875 71.3529M60.8125 82.1765C60.8125 76.1988 65.6814 71.3529 71.6875 71.3529M71.6875 71.3529L77.125 22.6471" stroke="white" stroke-linecap="round" stroke-linejoin="round"/>
</svg>
