<svg width="94" height="94" viewBox="0 0 94 94" fill="none" xmlns="http://www.w3.org/2000/svg">
<path d="M53.064 3.85701L58.3317 10.1281C59.1485 11.0985 60.1858 11.8591 61.3568 12.3464C62.5278 12.8338 63.7985 13.0336 65.0626 12.9292L73.424 12.2184C74.5428 12.1375 75.666 12.2983 76.7171 12.6899C77.7683 13.0815 78.7228 13.6947 79.516 14.4879C80.3092 15.2811 80.9224 16.2356 81.314 17.2868C81.7056 18.3379 81.8664 19.4611 81.7855 20.5799L81.0747 28.9413C80.9703 30.2054 81.1701 31.4761 81.6575 32.6471C82.1448 33.8181 82.9055 34.8554 83.8758 35.6722L90.1469 40.9399C91.0405 41.6773 91.76 42.6032 92.2539 43.6512C92.7478 44.6992 93.0039 45.8434 93.0039 47.002C93.0039 48.1605 92.7478 49.3047 92.2539 50.3527C91.76 51.4007 91.0405 52.3266 90.1469 53.064L83.8758 58.3317C82.9055 59.1485 82.1448 60.1858 81.6575 61.3568C81.1701 62.5278 80.9703 63.7985 81.0747 65.0626L81.7855 73.424C81.8664 74.5428 81.7056 75.666 81.314 76.7171C80.9224 77.7683 80.3092 78.7228 79.516 79.516C78.7228 80.3092 77.7683 80.9224 76.7171 81.314C75.666 81.7056 74.5428 81.8664 73.424 81.7855L65.0626 81.0747C63.7985 80.9703 62.5278 81.1701 61.3568 81.6575C60.1858 82.1448 59.1485 82.9055 58.3317 83.8758L53.064 90.1469C52.3266 91.0405 51.4007 91.76 50.3527 92.2539C49.3047 92.7478 48.1605 93.0039 47.002 93.0039C45.8434 93.0039 44.6992 92.7478 43.6512 92.2539C42.6032 91.76 41.6773 91.0405 40.9399 90.1469L35.6722 83.8758C34.8554 82.9055 33.8181 82.1448 32.6471 81.6575C31.4761 81.1701 30.2054 80.9703 28.9413 81.0747L20.5799 81.7855C19.4611 81.8664 18.3379 81.7056 17.2868 81.314C16.2356 80.9224 15.2811 80.3092 14.4879 79.516C13.6947 78.7228 13.0815 77.7683 12.6899 76.7171C12.2983 75.666 12.1375 74.5428 12.2184 73.424L12.9292 65.0626C13.0336 63.7985 12.8338 62.5278 12.3464 61.3568C11.8591 60.1858 11.0985 59.1485 10.1281 58.3317L3.85701 53.064C2.96345 52.3266 2.24396 51.4007 1.75004 50.3527C1.25613 49.3047 1 48.1605 1 47.002C1 45.8434 1.25613 44.6992 1.75004 43.6512C2.24396 42.6032 2.96345 41.6773 3.85701 40.9399L10.1281 35.6722C11.0985 34.8554 11.8591 33.8181 12.3464 32.6471C12.8338 31.4761 13.0336 30.2054 12.9292 28.9413L12.2184 20.5799C12.1375 19.4611 12.2983 18.3379 12.6899 17.2868C13.0815 16.2356 13.6947 15.2811 14.4879 14.4879C15.2811 13.6947 16.2356 13.0815 17.2868 12.6899C18.3379 12.2983 19.4611 12.1375 20.5799 12.2184L28.9413 12.9292C30.2054 13.0336 31.4761 12.8338 32.6471 12.3464C33.8181 11.8591 34.8554 11.0985 35.6722 10.1281L40.9399 3.85701C41.6773 2.96345 42.6032 2.24396 43.6512 1.75004C44.6992 1.25613 45.8434 1 47.002 1C48.1605 1 49.3047 1.25613 50.3527 1.75004C51.4007 2.24396 52.3266 2.96345 53.064 3.85701V3.85701Z" stroke="white" stroke-linecap="round" stroke-linejoin="round"/>
<path d="M47.0051 67.9038C58.5498 67.9038 67.9087 58.5449 67.9087 47.0002C67.9087 35.4555 58.5498 26.0967 47.0051 26.0967C35.4604 26.0967 26.1016 35.4555 26.1016 47.0002C26.1016 58.5449 35.4604 67.9038 47.0051 67.9038Z" stroke="white" stroke-linecap="round" stroke-linejoin="round"/>
</svg>
