<svg width="92" height="92" viewBox="0 0 92 92" fill="none" xmlns="http://www.w3.org/2000/svg">
<path d="M41.8705 90.7895C41.8705 84.0178 36.381 78.5283 29.6094 78.5283" stroke="white" stroke-linecap="round" stroke-linejoin="round"/>
<path d="M41.8705 66.2676C41.8705 73.0392 36.381 78.5287 29.6094 78.5287" stroke="white" stroke-linecap="round" stroke-linejoin="round"/>
<path d="M54.1283 78.5287C47.3567 78.5287 41.8672 73.0392 41.8672 66.2676" stroke="white" stroke-linecap="round" stroke-linejoin="round"/>
<path d="M41.8672 90.7895C41.8672 84.0178 47.3567 78.5283 54.1283 78.5283" stroke="white" stroke-linecap="round" stroke-linejoin="round"/>
<path d="M70.4821 70.3551C70.4821 59.0691 61.3329 49.9199 50.0469 49.9199" stroke="white" stroke-linecap="round" stroke-linejoin="round"/>
<path d="M70.4821 29.4844C70.4821 40.7704 61.3329 49.9196 50.0469 49.9196" stroke="white" stroke-linecap="round" stroke-linejoin="round"/>
<path d="M70.4844 70.3551C70.4844 59.0691 79.6335 49.9199 90.9196 49.9199" stroke="white" stroke-linecap="round" stroke-linejoin="round"/>
<path d="M90.9196 49.9196C79.6335 49.9196 70.4844 40.7704 70.4844 29.4844" stroke="white" stroke-linecap="round" stroke-linejoin="round"/>
<path d="M25.5223 0.875977C25.5223 14.4193 14.5433 25.3982 1 25.3982" stroke="white" stroke-miterlimit="10" stroke-linecap="round" stroke-linejoin="round"/>
<path d="M25.5223 49.9207C25.5223 36.3774 14.5433 25.3984 1 25.3984" stroke="white" stroke-miterlimit="10" stroke-linecap="round" stroke-linejoin="round"/>
<path d="M25.5234 49.9207C25.5234 36.3774 36.5024 25.3984 50.0457 25.3984" stroke="white" stroke-miterlimit="10" stroke-linecap="round" stroke-linejoin="round"/>
<path d="M50.0457 25.3982C36.5024 25.3982 25.5234 14.4193 25.5234 0.875977" stroke="white" stroke-miterlimit="10" stroke-linecap="round" stroke-linejoin="round"/>
</svg>
