<svg width="772" height="184" viewBox="0 0 772 184" fill="none" xmlns="http://www.w3.org/2000/svg">
<path d="M650.67 60.5567C650.612 60.3696 650.535 60.2021 650.439 60.0539C650.345 59.9039 650.233 59.7761 650.102 59.6706C649.973 59.565 649.827 59.4845 649.662 59.4289C649.498 59.3734 649.317 59.3456 649.121 59.3456C648.799 59.3456 648.507 59.4326 648.243 59.6067C647.98 59.7808 647.771 60.0372 647.615 60.3761C647.459 60.715 647.382 61.1307 647.382 61.6233C647.382 62.1159 647.46 62.5316 647.618 62.8705C647.775 63.2094 647.988 63.4658 648.257 63.6399C648.525 63.814 648.828 63.901 649.164 63.901C649.475 63.901 649.749 63.8316 649.986 63.6927C650.224 63.5519 650.41 63.3538 650.543 63.0983C650.677 62.8409 650.744 62.5381 650.744 62.19L650.946 62.2344H649.312V61.6233H651.381V62.2344C651.381 62.7029 651.285 63.1103 651.094 63.4566C650.905 63.8029 650.643 64.0714 650.309 64.2621C649.977 64.451 649.595 64.5454 649.164 64.5454C648.683 64.5454 648.26 64.4269 647.896 64.1899C647.534 63.9529 647.251 63.6158 647.047 63.1788C646.846 62.7418 646.745 62.2233 646.745 61.6233C646.745 61.1733 646.803 60.7687 646.917 60.4095C647.034 60.0484 647.199 59.741 647.411 59.4873C647.623 59.2336 647.874 59.0391 648.164 58.9039C648.454 58.7688 648.773 58.7012 649.121 58.7012C649.408 58.7012 649.675 58.7465 649.922 58.8373C650.171 58.9262 650.393 59.053 650.588 59.2178C650.784 59.3808 650.947 59.5761 651.078 59.8039C651.209 60.0298 651.299 60.2808 651.349 60.5567H650.67Z" fill="#999999"/>
<path d="M652.507 64.4677V58.7789H653.165V61.3122H656.06V58.7789H656.718V64.4677H656.06V61.9233H653.165V64.4677H652.507Z" fill="#999999"/>
<path d="M658.035 64.4677V58.7789H658.692V61.6011H658.756L661.196 58.7789H662.055L659.774 61.3455L662.055 64.4677H661.259L659.371 61.8233L658.692 62.6233V64.4677H658.035Z" fill="#999999"/>
<path d="M667.255 61.3178V61.9288H664.879V61.3178H667.255Z" fill="#999999"/>
<path d="M670.319 63.301V62.7344L672.705 58.7789H673.098V59.6567H672.833L671.029 62.6455V62.6899H674.244V63.301H670.319ZM672.875 64.4677V58.7789H673.501V64.4677H672.875Z" fill="#999999"/>
<path d="M675.237 64.4677V63.9677L677.03 61.9122C677.24 61.6714 677.414 61.4622 677.55 61.2844C677.686 61.1048 677.787 60.9363 677.852 60.7789C677.919 60.6196 677.953 60.453 677.953 60.2789C677.953 60.0789 677.907 59.9058 677.815 59.7595C677.725 59.6132 677.601 59.5002 677.444 59.4206C677.286 59.341 677.109 59.3012 676.913 59.3012C676.705 59.3012 676.523 59.3465 676.367 59.4373C676.213 59.5261 676.094 59.6511 676.009 59.8122C675.926 59.9734 675.884 60.1622 675.884 60.3789H675.258C675.258 60.0456 675.332 59.753 675.479 59.5011C675.625 59.2493 675.825 59.053 676.078 58.9123C676.332 58.7715 676.618 58.7012 676.934 58.7012C677.253 58.7012 677.535 58.7715 677.78 58.9123C678.026 59.053 678.219 59.2428 678.359 59.4817C678.498 59.7206 678.568 59.9863 678.568 60.2789C678.568 60.4882 678.532 60.6928 678.459 60.8928C678.389 61.0909 678.265 61.3122 678.088 61.5566C677.913 61.7992 677.67 62.0955 677.359 62.4455L676.139 63.8121V63.8566H678.663V64.4677H675.237Z" fill="#999999"/>
<path d="M681.498 64.5454C681.134 64.5454 680.812 64.4778 680.533 64.3427C680.255 64.2056 680.039 64.0177 679.883 63.7788C679.728 63.5381 679.651 63.264 679.653 62.9566C679.651 62.7159 679.696 62.4936 679.788 62.2899C679.88 62.0844 680.005 61.9131 680.164 61.7761C680.325 61.6372 680.505 61.5492 680.703 61.5122V61.4789C680.443 61.4085 680.236 61.2557 680.082 61.0205C679.928 60.7835 679.852 60.5141 679.854 60.2122C679.852 59.9234 679.922 59.665 680.064 59.4373C680.205 59.2095 680.4 59.0299 680.647 58.8984C680.896 58.7669 681.18 58.7012 681.498 58.7012C681.813 58.7012 682.094 58.7669 682.342 58.8984C682.589 59.0299 682.784 59.2095 682.925 59.4373C683.068 59.665 683.141 59.9234 683.142 60.2122C683.141 60.5141 683.062 60.7835 682.906 61.0205C682.753 61.2557 682.548 61.4085 682.294 61.4789V61.5122C682.49 61.5492 682.667 61.6372 682.824 61.7761C682.982 61.9131 683.107 62.0844 683.201 62.2899C683.294 62.4936 683.342 62.7159 683.344 62.9566C683.342 63.264 683.263 63.5381 683.105 63.7788C682.95 64.0177 682.733 64.2056 682.456 64.3427C682.18 64.4778 681.861 64.5454 681.498 64.5454ZM681.498 63.9343C681.744 63.9343 681.956 63.8927 682.135 63.8093C682.313 63.726 682.451 63.6084 682.548 63.4566C682.646 63.3047 682.695 63.127 682.697 62.9233C682.695 62.7085 682.642 62.5186 682.538 62.3538C682.434 62.189 682.291 62.0594 682.111 61.965C681.932 61.8705 681.728 61.8233 681.498 61.8233C681.267 61.8233 681.06 61.8705 680.878 61.965C680.697 62.0594 680.555 62.189 680.451 62.3538C680.348 62.5186 680.298 62.7085 680.3 62.9233C680.298 63.127 680.345 63.3047 680.44 63.4566C680.537 63.6084 680.676 63.726 680.857 63.8093C681.037 63.8927 681.251 63.9343 681.498 63.9343ZM681.498 61.2344C681.693 61.2344 681.865 61.1937 682.015 61.1122C682.167 61.0307 682.287 60.9168 682.373 60.7706C682.46 60.6243 682.504 60.453 682.506 60.2567C682.504 60.0641 682.461 59.8965 682.376 59.7539C682.291 59.6095 682.174 59.4984 682.023 59.4206C681.873 59.341 681.698 59.3012 681.498 59.3012C681.295 59.3012 681.117 59.341 680.965 59.4206C680.813 59.4984 680.696 59.6095 680.613 59.7539C680.529 59.8965 680.489 60.0641 680.491 60.2567C680.489 60.453 680.53 60.6243 680.615 60.7706C680.702 60.9168 680.821 61.0307 680.973 61.1122C681.125 61.1937 681.3 61.2344 681.498 61.2344Z" fill="#999999"/>
<path d="M684.36 64.4677V63.9677L686.153 61.9122C686.363 61.6714 686.537 61.4622 686.673 61.2844C686.809 61.1048 686.91 60.9363 686.975 60.7789C687.042 60.6196 687.076 60.453 687.076 60.2789C687.076 60.0789 687.03 59.9058 686.938 59.7595C686.848 59.6132 686.724 59.5002 686.567 59.4206C686.409 59.341 686.233 59.3012 686.036 59.3012C685.828 59.3012 685.646 59.3465 685.49 59.4373C685.336 59.5261 685.217 59.6511 685.132 59.8122C685.049 59.9734 685.007 60.1622 685.007 60.3789H684.382C684.382 60.0456 684.455 59.753 684.602 59.5011C684.748 59.2493 684.948 59.053 685.201 58.9123C685.456 58.7715 685.741 58.7012 686.058 58.7012C686.376 58.7012 686.658 58.7715 686.903 58.9123C687.149 59.053 687.342 59.2428 687.482 59.4817C687.621 59.7206 687.691 59.9863 687.691 60.2789C687.691 60.4882 687.655 60.6928 687.582 60.8928C687.512 61.0909 687.388 61.3122 687.211 61.5566C687.036 61.7992 686.793 62.0955 686.482 62.4455L685.262 63.8121V63.8566H687.787V64.4677H684.36Z" fill="#999999"/>
<path d="M646.957 74.2451V68.5564H648.792C649.217 68.5564 649.565 68.6323 649.837 68.7842C650.109 68.9342 650.311 69.1407 650.442 69.4036C650.573 69.6666 650.638 69.9656 650.638 70.3008C650.638 70.636 650.573 70.9332 650.442 71.1924C650.311 71.4517 650.11 71.6554 649.84 71.8035C649.569 71.9498 649.224 72.023 648.803 72.023H647.318V71.4008H648.782C649.072 71.4008 649.305 71.3563 649.482 71.2674C649.66 71.1786 649.789 71.0526 649.869 70.8897C649.95 70.7249 649.991 70.5286 649.991 70.3008C649.991 70.073 649.95 69.874 649.869 69.7036C649.788 69.5332 649.658 69.4018 649.479 69.3092C649.301 69.2147 649.065 69.1675 648.771 69.1675H647.615V74.2451H646.957ZM649.514 71.6896L650.85 74.2451H650.086L648.771 71.6896H649.514Z" fill="#999999"/>
<path d="M652.392 68.5564V74.2451H651.734V68.5564H652.392Z" fill="#999999"/>
<path d="M656.68 69.9786C656.648 69.6971 656.519 69.4786 656.293 69.3231C656.067 69.1675 655.789 69.0897 655.46 69.0897C655.22 69.0897 655.01 69.1305 654.829 69.2119C654.651 69.2934 654.511 69.4055 654.41 69.548C654.311 69.6906 654.262 69.8527 654.262 70.0341C654.262 70.186 654.296 70.3165 654.365 70.4258C654.436 70.5332 654.526 70.623 654.636 70.6952C654.745 70.7656 654.86 70.8239 654.98 70.8702C655.101 70.9147 655.211 70.9508 655.312 70.9786L655.864 71.1341C656.005 71.173 656.162 71.2267 656.336 71.2952C656.511 71.3637 656.678 71.4572 656.837 71.5758C656.998 71.6924 657.13 71.8424 657.235 72.0257C657.339 72.2091 657.391 72.4341 657.391 72.7007C657.391 73.0081 657.314 73.2859 657.16 73.534C657.008 73.7822 656.785 73.9794 656.492 74.1257C656.2 74.272 655.846 74.3451 655.429 74.3451C655.04 74.3451 654.703 74.2794 654.418 74.1479C654.135 74.0164 653.913 73.8331 653.75 73.5979C653.589 73.3627 653.498 73.0896 653.477 72.7785H654.156C654.173 72.9933 654.242 73.1711 654.363 73.3118C654.485 73.4507 654.638 73.5544 654.824 73.6229C655.011 73.6896 655.213 73.7229 655.429 73.7229C655.68 73.7229 655.905 73.6803 656.105 73.5951C656.305 73.5081 656.463 73.3877 656.58 73.234C656.696 73.0785 656.755 72.897 656.755 72.6896C656.755 72.5007 656.704 72.347 656.603 72.2285C656.503 72.11 656.37 72.0137 656.206 71.9396C656.041 71.8656 655.864 71.8008 655.673 71.7452L655.004 71.5452C654.58 71.4174 654.244 71.235 653.997 70.998C653.749 70.761 653.625 70.4508 653.625 70.0675C653.625 69.749 653.708 69.4712 653.872 69.2342C654.038 68.9953 654.261 68.8101 654.54 68.6786C654.821 68.5453 655.135 68.4786 655.482 68.4786C655.832 68.4786 656.143 68.5444 656.415 68.6759C656.687 68.8055 656.903 68.9833 657.062 69.2092C657.223 69.4351 657.308 69.6916 657.317 69.9786H656.68Z" fill="#999999"/>
<path d="M658.472 74.2451V68.5564H659.13V71.3785H659.194L661.633 68.5564H662.492L660.212 71.123L662.492 74.2451H661.697L659.809 71.6008L659.13 72.4007V74.2451H658.472Z" fill="#999999"/>
<path d="M667.12 74.3229C666.72 74.3229 666.38 74.209 666.099 73.9812C665.818 73.7516 665.603 73.4192 665.455 72.9841C665.306 72.547 665.232 72.0193 665.232 71.4008C665.232 70.786 665.306 70.261 665.455 69.8258C665.605 69.3888 665.821 69.0555 666.102 68.8259C666.385 68.5944 666.724 68.4786 667.12 68.4786C667.516 68.4786 667.855 68.5944 668.136 68.8259C668.418 69.0555 668.634 69.3888 668.783 69.8258C668.933 70.261 669.008 70.786 669.008 71.4008C669.008 72.0193 668.934 72.547 668.785 72.9841C668.637 73.4192 668.422 73.7516 668.141 73.9812C667.86 74.209 667.52 74.3229 667.12 74.3229ZM667.12 73.7118C667.516 73.7118 667.824 73.5118 668.043 73.1118C668.262 72.7118 668.372 72.1415 668.372 71.4008C668.372 70.9082 668.321 70.4888 668.22 70.1425C668.121 69.7962 667.978 69.5323 667.791 69.3508C667.605 69.1694 667.382 69.0786 667.12 69.0786C666.727 69.0786 666.421 69.2814 666.2 69.6869C665.979 70.0906 665.868 70.6619 665.868 71.4008C665.868 71.8933 665.918 72.3119 666.017 72.6563C666.116 73.0007 666.258 73.2627 666.444 73.4424C666.631 73.622 666.857 73.7118 667.12 73.7118Z" fill="#999999"/>
<path d="M671.755 74.3229C671.391 74.3229 671.069 74.2553 670.79 74.1201C670.513 73.9831 670.296 73.7951 670.14 73.5563C669.985 73.3155 669.908 73.0415 669.91 72.7341C669.908 72.4933 669.953 72.2711 670.045 72.0674C670.137 71.8619 670.262 71.6906 670.422 71.5535C670.582 71.4147 670.762 71.3267 670.96 71.2897V71.2563C670.7 71.186 670.493 71.0332 670.339 70.798C670.186 70.561 670.109 70.2915 670.111 69.9897C670.109 69.7008 670.179 69.4425 670.321 69.2147C670.462 68.987 670.657 68.8073 670.904 68.6759C671.153 68.5444 671.437 68.4786 671.755 68.4786C672.07 68.4786 672.351 68.5444 672.599 68.6759C672.846 68.8073 673.041 68.987 673.182 69.2147C673.325 69.4425 673.398 69.7008 673.4 69.9897C673.398 70.2915 673.319 70.561 673.164 70.798C673.01 71.0332 672.806 71.186 672.551 71.2563V71.2897C672.747 71.3267 672.924 71.4147 673.081 71.5535C673.239 71.6906 673.364 71.8619 673.458 72.0674C673.552 72.2711 673.599 72.4933 673.601 72.7341C673.599 73.0415 673.52 73.3155 673.362 73.5563C673.207 73.7951 672.99 73.9831 672.713 74.1201C672.437 74.2553 672.118 74.3229 671.755 74.3229ZM671.755 73.7118C672.001 73.7118 672.213 73.6701 672.392 73.5868C672.57 73.5035 672.708 73.3859 672.806 73.234C672.903 73.0822 672.952 72.9044 672.954 72.7007C672.952 72.4859 672.899 72.2961 672.795 72.1313C672.691 71.9665 672.548 71.8369 672.368 71.7424C672.189 71.648 671.985 71.6008 671.755 71.6008C671.524 71.6008 671.317 71.648 671.135 71.7424C670.955 71.8369 670.812 71.9665 670.708 72.1313C670.605 72.2961 670.555 72.4859 670.557 72.7007C670.555 72.9044 670.602 73.0822 670.697 73.234C670.795 73.3859 670.933 73.5035 671.114 73.5868C671.294 73.6701 671.508 73.7118 671.755 73.7118ZM671.755 71.0119C671.95 71.0119 672.122 70.9712 672.273 70.8897C672.425 70.8082 672.544 70.6943 672.631 70.548C672.717 70.4017 672.761 70.2304 672.763 70.0341C672.761 69.8416 672.718 69.674 672.633 69.5314C672.548 69.3869 672.431 69.2758 672.28 69.1981C672.13 69.1184 671.955 69.0786 671.755 69.0786C671.552 69.0786 671.374 69.1184 671.222 69.1981C671.07 69.2758 670.953 69.3869 670.87 69.5314C670.787 69.674 670.746 69.8416 670.748 70.0341C670.746 70.2304 670.787 70.4017 670.872 70.548C670.959 70.6943 671.078 70.8082 671.23 70.8897C671.382 70.9712 671.557 71.0119 671.755 71.0119Z" fill="#999999"/>
<path d="M676.548 68.2898L674.798 75.1007H674.225L675.975 68.2898H676.548Z" fill="#999999"/>
<path d="M679.189 68.5564V74.2451H678.531V69.2786H678.499L677.173 70.2008V69.5008L678.531 68.5564H679.189Z" fill="#999999"/>
<path d="M682.522 74.3229C682.122 74.3229 681.782 74.209 681.501 73.9812C681.22 73.7516 681.005 73.4192 680.857 72.9841C680.708 72.547 680.634 72.0193 680.634 71.4008C680.634 70.786 680.708 70.261 680.857 69.8258C681.007 69.3888 681.223 69.0555 681.504 68.8259C681.786 68.5944 682.126 68.4786 682.522 68.4786C682.918 68.4786 683.256 68.5944 683.538 68.8259C683.82 69.0555 684.036 69.3888 684.185 69.8258C684.335 70.261 684.41 70.786 684.41 71.4008C684.41 72.0193 684.336 72.547 684.187 72.9841C684.039 73.4192 683.824 73.7516 683.543 73.9812C683.262 74.209 682.921 74.3229 682.522 74.3229ZM682.522 73.7118C682.918 73.7118 683.226 73.5118 683.445 73.1118C683.664 72.7118 683.774 72.1415 683.774 71.4008C683.774 70.9082 683.723 70.4888 683.622 70.1425C683.523 69.7962 683.38 69.5323 683.193 69.3508C683.007 69.1694 682.784 69.0786 682.522 69.0786C682.129 69.0786 681.823 69.2814 681.602 69.6869C681.381 70.0906 681.27 70.6619 681.27 71.4008C681.27 71.8933 681.32 72.3119 681.419 72.6563C681.518 73.0007 681.66 73.2627 681.846 73.4424C682.033 73.622 682.259 73.7118 682.522 73.7118Z" fill="#999999"/>
<path d="M687.189 74.3229C686.79 74.3229 686.449 74.209 686.168 73.9812C685.887 73.7516 685.672 73.4192 685.524 72.9841C685.375 72.547 685.301 72.0193 685.301 71.4008C685.301 70.786 685.375 70.261 685.524 69.8258C685.674 69.3888 685.89 69.0555 686.171 68.8259C686.454 68.5944 686.793 68.4786 687.189 68.4786C687.585 68.4786 687.924 68.5944 688.205 68.8259C688.488 69.0555 688.703 69.3888 688.852 69.8258C689.002 70.261 689.077 70.786 689.077 71.4008C689.077 72.0193 689.003 72.547 688.855 72.9841C688.706 73.4192 688.491 73.7516 688.21 73.9812C687.929 74.209 687.589 74.3229 687.189 74.3229ZM687.189 73.7118C687.585 73.7118 687.893 73.5118 688.112 73.1118C688.331 72.7118 688.441 72.1415 688.441 71.4008C688.441 70.9082 688.39 70.4888 688.29 70.1425C688.191 69.7962 688.047 69.5323 687.86 69.3508C687.674 69.1694 687.451 69.0786 687.189 69.0786C686.797 69.0786 686.49 69.2814 686.269 69.6869C686.048 70.0906 685.938 70.6619 685.938 71.4008C685.938 71.8933 685.987 72.3119 686.086 72.6563C686.185 73.0007 686.327 73.2627 686.513 73.4424C686.7 73.622 686.926 73.7118 687.189 73.7118Z" fill="#999999"/>
<path d="M648.633 84.1004C648.234 84.1004 647.893 83.9865 647.612 83.7587C647.331 83.5291 647.116 83.1967 646.968 82.7615C646.819 82.3245 646.745 81.7967 646.745 81.1782C646.745 80.5634 646.819 80.0385 646.968 79.6033C647.118 79.1663 647.334 78.8329 647.615 78.6033C647.898 78.3718 648.237 78.2561 648.633 78.2561C649.029 78.2561 649.368 78.3718 649.649 78.6033C649.932 78.8329 650.147 79.1663 650.296 79.6033C650.446 80.0385 650.521 80.5634 650.521 81.1782C650.521 81.7967 650.447 82.3245 650.299 82.7615C650.15 83.1967 649.935 83.5291 649.654 83.7587C649.373 83.9865 649.033 84.1004 648.633 84.1004ZM648.633 83.4893C649.029 83.4893 649.337 83.2893 649.556 82.8893C649.775 82.4893 649.885 81.919 649.885 81.1782C649.885 80.6857 649.835 80.2662 649.734 79.9199C649.635 79.5737 649.492 79.3098 649.304 79.1283C649.119 78.9468 648.895 78.8561 648.633 78.8561C648.241 78.8561 647.934 79.0589 647.713 79.4644C647.492 79.8681 647.382 80.4394 647.382 81.1782C647.382 81.6708 647.431 82.0893 647.53 82.4338C647.629 82.7782 647.771 83.0402 647.957 83.2198C648.144 83.3995 648.37 83.4893 648.633 83.4893Z" fill="#999999"/>
<path d="M653.332 84.1004C653.11 84.0967 652.887 84.0522 652.664 83.967C652.441 83.8819 652.238 83.7383 652.054 83.5365C651.87 83.3328 651.723 83.0578 651.611 82.7115C651.5 82.3634 651.444 81.9264 651.444 81.4005C651.444 80.8968 651.489 80.4505 651.579 80.0616C651.67 79.6709 651.8 79.3422 651.972 79.0755C652.143 78.807 652.35 78.6033 652.592 78.4644C652.836 78.3255 653.111 78.2561 653.417 78.2561C653.721 78.2561 653.992 78.32 654.229 78.4478C654.467 78.5737 654.662 78.7496 654.812 78.9755C654.962 79.2014 655.06 79.4616 655.104 79.7561H654.457C654.397 79.5005 654.28 79.2885 654.107 79.12C653.933 78.9515 653.704 78.8672 653.417 78.8672C652.996 78.8672 652.665 79.0589 652.423 79.4422C652.182 79.8255 652.061 80.3634 652.059 81.056H652.102C652.201 80.8986 652.318 80.7644 652.455 80.6533C652.592 80.5403 652.744 80.4533 652.911 80.3921C653.077 80.331 653.253 80.3005 653.438 80.3005C653.75 80.3005 654.034 80.382 654.292 80.5449C654.55 80.706 654.757 80.9292 654.913 81.2143C655.068 81.4977 655.146 81.8227 655.146 82.1893C655.146 82.5412 655.071 82.8634 654.921 83.1559C654.771 83.4467 654.559 83.6782 654.287 83.8504C654.016 84.0207 653.698 84.1041 653.332 84.1004ZM653.332 83.4893C653.555 83.4893 653.755 83.4309 653.932 83.3143C654.11 83.1976 654.251 83.0411 654.353 82.8448C654.458 82.6486 654.51 82.43 654.51 82.1893C654.51 81.9541 654.459 81.7403 654.359 81.5477C654.26 81.3532 654.123 81.1986 653.948 81.0838C653.774 80.969 653.576 80.9116 653.354 80.9116C653.186 80.9116 653.029 80.9468 652.884 81.0171C652.739 81.0856 652.612 81.1801 652.502 81.3005C652.394 81.4208 652.31 81.5588 652.248 81.7143C652.186 81.868 652.155 82.0301 652.155 82.2004C652.155 82.4263 652.205 82.6374 652.306 82.8337C652.409 83.03 652.548 83.1884 652.725 83.3087C652.904 83.4291 653.106 83.4893 653.332 83.4893Z" fill="#999999"/>
<path d="M656.656 83.2948C656.525 83.2948 656.413 83.2458 656.319 83.1476C656.225 83.0495 656.178 82.9319 656.178 82.7949C656.178 82.6578 656.225 82.5402 656.319 82.4421C656.413 82.3439 656.525 82.2949 656.656 82.2949C656.787 82.2949 656.899 82.3439 656.993 82.4421C657.086 82.5402 657.133 82.6578 657.133 82.7949C657.133 82.8856 657.111 82.9689 657.067 83.0448C657.024 83.1208 656.967 83.1819 656.894 83.2282C656.824 83.2726 656.744 83.2948 656.656 83.2948ZM656.656 80.4171C656.525 80.4171 656.413 80.3681 656.319 80.2699C656.225 80.1718 656.178 80.0542 656.178 79.9172C656.178 79.7801 656.225 79.6625 656.319 79.5644C656.413 79.4663 656.525 79.4172 656.656 79.4172C656.787 79.4172 656.899 79.4663 656.993 79.5644C657.086 79.6625 657.133 79.7801 657.133 79.9172C657.133 80.0079 657.111 80.0912 657.067 80.1672C657.024 80.2431 656.967 80.3042 656.894 80.3505C656.824 80.3949 656.744 80.4171 656.656 80.4171Z" fill="#999999"/>
<path d="M658.118 82.856V82.2893L660.505 78.3339H660.897V79.2116H660.632L658.829 82.2004V82.2449H662.043V82.856H658.118ZM660.675 84.0226V78.3339H661.3V84.0226H660.675Z" fill="#999999"/>
<path d="M664.84 84.1004C664.617 84.0967 664.395 84.0522 664.172 83.967C663.949 83.8819 663.746 83.7383 663.562 83.5365C663.378 83.3328 663.23 83.0578 663.119 82.7115C663.008 82.3634 662.952 81.9264 662.952 81.4005C662.952 80.8968 662.997 80.4505 663.087 80.0616C663.177 79.6709 663.308 79.3422 663.48 79.0755C663.651 78.807 663.858 78.6033 664.1 78.4644C664.344 78.3255 664.619 78.2561 664.925 78.2561C665.229 78.2561 665.499 78.32 665.736 78.4478C665.975 78.5737 666.169 78.7496 666.32 78.9755C666.47 79.2014 666.567 79.4616 666.611 79.7561H665.964C665.904 79.5005 665.788 79.2885 665.614 79.12C665.441 78.9515 665.211 78.8672 664.925 78.8672C664.504 78.8672 664.173 79.0589 663.93 79.4422C663.69 79.8255 663.569 80.3634 663.567 81.056H663.61C663.709 80.8986 663.826 80.7644 663.962 80.6533C664.1 80.5403 664.252 80.4533 664.418 80.3921C664.585 80.331 664.76 80.3005 664.946 80.3005C665.257 80.3005 665.542 80.382 665.8 80.5449C666.058 80.706 666.265 80.9292 666.421 81.2143C666.576 81.4977 666.654 81.8227 666.654 82.1893C666.654 82.5412 666.579 82.8634 666.428 83.1559C666.278 83.4467 666.067 83.6782 665.795 83.8504C665.524 84.0207 665.206 84.1041 664.84 84.1004ZM664.84 83.4893C665.063 83.4893 665.263 83.4309 665.439 83.3143C665.618 83.1976 665.758 83.0411 665.861 82.8448C665.965 82.6486 666.017 82.43 666.017 82.1893C666.017 81.9541 665.967 81.7403 665.866 81.5477C665.767 81.3532 665.63 81.1986 665.455 81.0838C665.282 80.969 665.084 80.9116 664.861 80.9116C664.693 80.9116 664.537 80.9468 664.392 81.0171C664.247 81.0856 664.12 81.1801 664.01 81.3005C663.902 81.4208 663.817 81.5588 663.755 81.7143C663.694 81.868 663.663 82.0301 663.663 82.2004C663.663 82.4263 663.713 82.6374 663.814 82.8337C663.916 83.03 664.056 83.1884 664.233 83.3087C664.411 83.4291 664.614 83.4893 664.84 83.4893Z" fill="#999999"/>
<path d="M668.163 83.2948C668.033 83.2948 667.92 83.2458 667.827 83.1476C667.733 83.0495 667.686 82.9319 667.686 82.7949C667.686 82.6578 667.733 82.5402 667.827 82.4421C667.92 82.3439 668.033 82.2949 668.163 82.2949C668.294 82.2949 668.407 82.3439 668.5 82.4421C668.594 82.5402 668.641 82.6578 668.641 82.7949C668.641 82.8856 668.619 82.9689 668.575 83.0448C668.532 83.1208 668.475 83.1819 668.402 83.2282C668.331 83.2726 668.252 83.2948 668.163 83.2948ZM668.163 80.4171C668.033 80.4171 667.92 80.3681 667.827 80.2699C667.733 80.1718 667.686 80.0542 667.686 79.9172C667.686 79.7801 667.733 79.6625 667.827 79.5644C667.92 79.4663 668.033 79.4172 668.163 79.4172C668.294 79.4172 668.407 79.4663 668.5 79.5644C668.594 79.6625 668.641 79.7801 668.641 79.9172C668.641 80.0079 668.619 80.0912 668.575 80.1672C668.532 80.2431 668.475 80.3042 668.402 80.3505C668.331 80.3949 668.252 80.4171 668.163 80.4171Z" fill="#999999"/>
<path d="M671.663 78.3339V84.0226H671.005V79.0561H670.973L669.647 79.9783V79.2783L671.005 78.3339H671.663Z" fill="#999999"/>
<path d="M673.225 84.0226V83.5226L675.017 81.4671C675.228 81.2264 675.401 81.0171 675.537 80.8394C675.673 80.6597 675.774 80.4912 675.839 80.3338C675.906 80.1746 675.94 80.0079 675.94 79.8338C675.94 79.6338 675.894 79.4607 675.802 79.3144C675.712 79.1681 675.588 79.0552 675.431 78.9755C675.274 78.8959 675.097 78.8561 674.9 78.8561C674.692 78.8561 674.51 78.9015 674.354 78.9922C674.2 79.0811 674.081 79.2061 673.996 79.3672C673.913 79.5283 673.872 79.7172 673.872 79.9338H673.246C673.246 79.6005 673.319 79.3079 673.466 79.0561C673.613 78.8042 673.812 78.6079 674.065 78.4672C674.32 78.3265 674.605 78.2561 674.922 78.2561C675.24 78.2561 675.522 78.3265 675.768 78.4672C676.013 78.6079 676.206 78.7978 676.346 79.0366C676.485 79.2755 676.555 79.5413 676.555 79.8338C676.555 80.0431 676.519 80.2477 676.447 80.4477C676.376 80.6458 676.252 80.8671 676.075 81.1116C675.9 81.3542 675.657 81.6504 675.346 82.0004L674.126 83.3671V83.4115H676.651V84.0226H673.225Z" fill="#999999"/>
<rect x="618.459" y="29.2861" width="106.806" height="85.3577" stroke="#999999"/>
<line x1="4.37114e-08" y1="92.5" x2="772" y2="92.5001" stroke="#999999"/>
<line x1="638.778" y1="2.18557e-08" x2="638.778" y2="184.004" stroke="#999999"/>
<rect x="637.086" y="90.2441" width="4.64429" height="4.64429" stroke="#999999"/>
</svg>
