<svg width="128" height="94" viewBox="0 0 128 94" fill="none" xmlns="http://www.w3.org/2000/svg">
<path d="M92.228 65.9099C95.6882 64.8565 99.7485 64.25 104.091 64.25C116.743 64.25 127 69.3987 127 75.75C127 82.1013 116.743 87.25 104.091 87.25C99.7485 87.25 95.6882 86.6435 92.228 85.5901M92.228 65.9099C86.0208 61.4314 75.6923 58.5 64 58.5C52.3076 58.5 41.9792 61.4314 35.772 65.9099M92.228 65.9099C96.096 68.7008 98.3636 72.0925 98.3636 75.75C98.3636 79.4075 96.096 82.7992 92.228 85.5901M92.228 85.5901C86.0208 90.0686 75.6923 93 64 93C52.3076 93 41.9792 90.0686 35.772 85.5901M35.772 65.9099C32.3118 64.8565 28.2515 64.25 23.9091 64.25C11.2567 64.25 1 69.3987 1 75.75C1 82.1013 11.2567 87.25 23.9091 87.25C28.2515 87.25 32.3118 86.6435 35.772 85.5901M35.772 65.9099C31.904 68.7008 29.6364 72.0925 29.6364 75.75C29.6364 79.4075 31.904 82.7992 35.772 85.5901M81.1818 18.25C81.1818 27.7769 73.4893 35.5 64 35.5C54.5107 35.5 46.8182 27.7769 46.8182 18.25C46.8182 8.72309 54.5107 1 64 1C73.4893 1 81.1818 8.72309 81.1818 18.25ZM115.545 35.5C115.545 41.8513 110.417 47 104.091 47C97.7647 47 92.6364 41.8513 92.6364 35.5C92.6364 29.1487 97.7647 24 104.091 24C110.417 24 115.545 29.1487 115.545 35.5ZM35.3636 35.5C35.3636 41.8513 30.2353 47 23.9091 47C17.5829 47 12.4545 41.8513 12.4545 35.5C12.4545 29.1487 17.5829 24 23.9091 24C30.2353 24 35.3636 29.1487 35.3636 35.5Z" stroke="white"/>
</svg>
